<svg width="24" height="24" viewBox="0 0 24 24" fill="none" xmlns="http://www.w3.org/2000/svg">
<path d="M20.3425 6.53333V6.46667C20.3425 3.46667 17.5637 1 14.184 1C13.5081 1 12.9072 1.06667 12.3064 1.26667C12.2313 1.26667 12.1562 1.26667 12.0811 1.26667H10.1284C8.1757 1.26667 6.44831 2.33333 5.69727 3.86667H5.24665C4.3454 3.86667 3.59436 4.53333 3.59436 5.33333V7.8C3.59436 8.2 3.81967 8.6 4.12009 8.86667L3.14374 13.4667C2.3927 17 4.64582 20.5333 8.47612 21.6C9.30226 21.8667 10.2035 22 11.0297 22C11.9309 22 12.9072 21.8667 13.7334 21.6C17.4886 20.4 19.6666 17 18.9156 13.5333L18.4649 11.4667C18.6151 11.4667 18.8405 11.5333 19.0658 11.5333C20.7181 11.5333 21.9948 10.3333 21.9948 8.93333C22.0699 7.86667 21.3189 6.93333 20.3425 6.53333ZM19.216 6.26667H19.1409C18.8405 6.26667 18.54 6.33333 18.3147 6.4V5.33333C18.3147 4.53333 17.5637 3.86667 16.6624 3.86667H16.5122C16.1367 3.13333 15.611 2.46667 14.86 2.06667C17.2633 2.33333 19.1409 4.13333 19.216 6.26667ZM11.4803 12C11.4052 12.0667 11.255 12.2 11.1799 12.2667C11.1048 12.2 11.0297 12.0667 10.8794 12C10.7292 11.8667 10.579 11.8 10.4288 11.7333C10.4288 11.4 10.7292 11.1333 11.1048 11.1333C11.4803 11.1333 11.7807 11.4 11.7807 11.7333C11.7807 11.8667 11.6305 11.9333 11.4803 12ZM6.44831 9.2L9.75288 9.06667C10.5039 9 11.1799 9 11.9309 9.06667L15.7612 9.26667V10.6667C15.7612 11.3333 15.4608 12 15.0102 12.4667C14.4093 12.0667 13.7334 11.6 12.9824 11.5333C12.8321 10.7333 12.0811 10.1333 11.1799 10.1333C10.2786 10.1333 9.52757 10.7333 9.37736 11.5333C8.55122 11.6 7.80018 12.1333 7.27445 12.5333C6.74873 12 6.44831 11.3333 6.44831 10.6V9.2ZM7.27445 13.8667C7.49977 13.7333 7.72508 13.5333 7.95039 13.4C9.00184 12.5333 9.52757 12.3333 10.2786 12.8C10.579 13.0667 10.7292 13.4667 10.6541 13.8667C10.579 14.4 10.0533 14.8667 9.30226 15.1333C8.32591 15.4667 6.97404 15 6.07279 14.5333C6.44831 14.4 6.82383 14.2 7.27445 13.8667ZM12.2313 12.8C12.4566 12.6 12.6819 12.5333 12.9824 12.5333C13.433 12.5333 13.8836 12.8667 14.5595 13.4C14.6346 13.4667 14.6346 13.4667 14.7097 13.5333C14.86 13.6667 15.0853 13.8 15.2355 13.9333C15.6861 14.2 16.0616 14.4 16.362 14.6C15.4608 15.0667 14.1089 15.5333 13.1326 15.2C12.3815 14.9333 11.9309 14.4667 11.7807 13.9333C11.7056 13.4667 11.8558 13.0667 12.2313 12.8ZM15.9114 13.1333C16.5122 12.4667 16.8878 11.5333 16.8878 10.6667V9.26667C16.8878 9.26667 16.8878 9.26667 16.9629 9.26667L17.8641 13.7333C17.8641 13.8667 17.9392 14 17.9392 14.1333C17.8641 14.0667 17.789 14 17.7139 14C17.6388 13.9333 16.9629 13.8 15.9114 13.1333ZM10.1284 2.26667H12.006C13.2828 2.26667 14.4844 2.86667 15.1604 3.8L12.006 3.66667C11.1799 3.66667 10.3537 3.66667 9.52757 3.66667L7.04914 3.8C7.72508 2.86667 8.85164 2.26667 10.1284 2.26667ZM4.79603 5.33333C4.79603 5.06667 5.02134 4.86667 5.39686 4.86667L6.223 4.8L9.60268 4.66667C9.9782 4.66667 10.4288 4.66667 10.8043 4.66667C11.1799 4.66667 11.5554 4.66667 11.9309 4.66667L16.1367 4.86667H16.5873C16.8878 4.86667 17.1131 5.06667 17.1131 5.33333V7.8C17.1131 8.06667 16.8878 8.26667 16.5873 8.26667L12.006 8.06667C11.255 8 10.5039 8 9.67778 8.06667L5.84748 8.26667H5.24665C4.94623 8.26667 4.72092 8.06667 4.72092 7.8V5.33333H4.79603ZM13.433 20.6667C11.9309 21.1333 10.3537 21.1333 8.85164 20.7333C5.62217 19.7333 3.59436 16.7333 4.2703 13.7333L5.24665 9.33333C5.32175 9.33333 5.32175 9.33333 5.39686 9.33333V10.7333C5.39686 11.6667 5.77238 12.6 6.44831 13.2667C5.54706 13.8667 4.87113 14 4.87113 14C4.64582 14.0667 4.49561 14.2 4.42051 14.4C4.3454 14.6 4.42051 14.8 4.64582 14.9333C4.72092 15 6.74873 16.3333 8.70143 16.3333C9.07695 16.3333 9.45247 16.2667 9.82799 16.2C10.5039 16 10.9545 15.6667 11.3301 15.2C11.7056 15.6 12.2313 15.9333 12.8321 16.2C13.2077 16.3333 13.5832 16.3333 13.9587 16.3333C15.9114 16.3333 17.8641 15 18.0143 14.9333C18.0894 14.9333 18.0894 14.8667 18.0894 14.8667C18.0143 17.3333 16.2118 19.7333 13.433 20.6667ZM19.1409 10.5333C18.8405 10.5333 18.6151 10.4667 18.3147 10.3333L17.9392 8.66667C17.9392 8.66667 17.9392 8.66667 17.9392 8.6C18.1645 8.33333 18.2396 8.06667 18.2396 7.73333V7.4C18.4649 7.26667 18.7654 7.2 19.0658 7.2C20.0421 7.2 20.8683 7.93333 20.8683 8.8C20.9434 9.8 20.1172 10.5333 19.1409 10.5333Z" fill="#999999"/>
</svg>