<?xml version="1.0" encoding="UTF-8"?>
<svg width="24px" height="24px" viewBox="0 0 24 24" version="1.1" xmlns="http://www.w3.org/2000/svg" xmlns:xlink="http://www.w3.org/1999/xlink">
    <!-- Generator: Sketch 61.2 (89653) - https://sketch.com -->
    <title>icon/audio-video-photo</title>
    <desc>Created with Sketch.</desc>
    <g id="icon/audio-video-photo" stroke="none" stroke-width="1" fill="none" fill-rule="evenodd">
        <g transform="translate(3.000000, 3.000000)" fill="#999999" fill-rule="nonzero">
            <path d="M9,0.0236953125 C13.949543,0.0236953125 17.9763047,4.05045703 17.9763047,9 L17.9763047,9 L17.9769781,12.3626615 C17.9922063,12.5264979 18,12.692584 18,12.860543 C18,15.6682969 15.822,17.9526445 13.1447461,17.9526445 C12.7522969,17.9526445 12.4342031,17.6345508 12.4342031,17.2421016 L12.4342031,17.2421016 L12.4342031,8.47894922 C12.4342031,8.0865 12.7522969,7.76840625 13.1447461,7.76840625 C14.4729538,7.76840625 15.6782834,8.33064626 16.5557537,9.24009999 L16.5552539,9 C16.5552539,4.83419531 13.1660508,1.44474609 9,1.44474609 C4.83394922,1.44474609 1.44474609,4.83419531 1.44474609,9 L1.44474609,9 L1.44410192,9.2639276 C2.32158434,8.3543946 3.52697335,7.79210156 4.85525391,7.79210156 C5.24770312,7.79210156 5.56579687,8.11019531 5.56579687,8.50264453 L5.56579687,8.50264453 L5.56579687,17.2657617 C5.56579687,17.6582109 5.24770312,17.9763047 4.85525391,17.9763047 C2.178,17.9763047 -3.33066907e-14,15.691957 -3.33066907e-14,12.8842031 C-3.33066907e-14,12.7161503 0.00780245874,12.5499725 0.0230474235,12.3860473 L0.0236953125,9 C0.0236953125,4.05045703 4.05045703,0.0236953125 9,0.0236953125 Z M4.14474609,9.29225391 C2.71765705,9.61418112 1.61459119,10.8867108 1.44400877,12.4584405 L1.44474609,13.1447461 L1.42965976,13.1455155 C1.53853269,14.7923578 2.66823633,16.1430691 4.14474609,16.4761523 L4.14474609,16.4761523 Z M13.8552539,9.26859375 L13.8552539,16.452457 C15.3248007,16.1209853 16.4507573,14.7816636 16.5687242,13.1452758 L16.5552539,13.1447461 L16.5560039,12.4348562 C16.385461,10.8629409 15.2823478,9.59072307 13.8552539,9.26859375 L13.8552539,9.26859375 Z"/>
        </g>
    </g>
</svg>