<svg width="24" height="24" viewBox="0 0 24 24" xmlns="http://www.w3.org/2000/svg"><title>icon/menu/log_in</title><path d="M11.97 3.03a.747.747 0 1 1 0 1.495H5.243a.748.748 0 0 0-.748.747v13.456c0 .412.335.747.748.747h6.727a.747.747 0 1 1 0 1.495H5.243A2.245 2.245 0 0 1 3 18.728V5.272A2.245 2.245 0 0 1 5.243 3.03zm2.835 3.96a.747.747 0 0 1-.008 1.057l-3.248 3.205h8.704a.747.747 0 1 1 0 1.495h-8.704l3.248 3.206a.747.747 0 1 1-1.05 1.064l-4.544-4.485a.749.749 0 0 1 0-1.064l4.545-4.485a.747.747 0 0 1 1.057.007z" fill="#B5B8BC" fill-rule="nonzero"/></svg>