<svg width="18" height="17" viewBox="0 0 18 17" xmlns="http://www.w3.org/2000/svg"><title>A1BDEEAE-DBE3-4225-A0C7-E00AA2BBE76A@3x</title><g fill="#B5B8BC" fill-rule="nonzero"><path d="M5.325 8.4h-2.25c-.373 0-.675-.269-.675-.6 0-.331.302-.6.675-.6h2.25c.373 0 .675.269.675.6 0 .331-.302.6-.675.6zM15 8.4H9a.6.6 0 0 1 0-1.2h6a.6.6 0 0 1 0 1.2zM5.325 10.8h-2.25c-.373 0-.675-.269-.675-.6 0-.331.302-.6.675-.6h2.25c.373 0 .675.269.675.6 0 .331-.302.6-.675.6zM15 10.8H9a.6.6 0 0 1 0-1.2h6a.6.6 0 0 1 0 1.2zM5.325 13.2h-2.25c-.373 0-.675-.269-.675-.6 0-.331.302-.6.675-.6h2.25c.373 0 .675.269.675.6 0 .331-.302.6-.675.6zM15 13.2H9A.6.6 0 0 1 9 12h6a.6.6 0 0 1 0 1.2z"/><path d="M15.938 16.8H2.062C.925 16.8 0 15.858 0 14.7V2.1C0 .942.925 0 2.063 0h13.874C17.075 0 18 .942 18 2.1v12.6c0 1.158-.925 2.1-2.063 2.1zM2.127 1.2a.94.94 0 0 0-.928.947v12.506a.94.94 0 0 0 .929.947H15.87a.94.94 0 0 0 .929-.947V2.147a.94.94 0 0 0-.929-.947H2.13z"/><path d="M17.438 4.8H.563C.252 4.8 0 4.531 0 4.2c0-.331.252-.6.563-.6h16.875c.31 0 .562.269.562.6 0 .331-.252.6-.563.6z"/></g></svg>