<svg width="16" height="12" viewBox="0 0 16 12" fill="none" xmlns="http://www.w3.org/2000/svg">
<path fill-rule="evenodd" clip-rule="evenodd" d="M0 0.666667C0 0.298477 0.298477 0 0.666667 0H15.3333C15.7015 0 16 0.298477 16 0.666667C16 1.03486 15.7015 1.33333 15.3333 1.33333H0.666667C0.298477 1.33333 0 1.03486 0 0.666667ZM0 6C0 5.63181 0.298477 5.33333 0.666667 5.33333H15.3333C15.7015 5.33333 16 5.63181 16 6C16 6.36819 15.7015 6.66667 15.3333 6.66667H0.666667C0.298477 6.66667 0 6.36819 0 6ZM0.666667 10.6667C0.298477 10.6667 0 10.9651 0 11.3333C0 11.7015 0.298477 12 0.666667 12H15.3333C15.7015 12 16 11.7015 16 11.3333C16 10.9651 15.7015 10.6667 15.3333 10.6667H0.666667Z" fill="#555555"/>
</svg>