<?xml version="1.0" encoding="UTF-8"?>
<svg width="16px" height="13px" viewBox="0 0 16 13" version="1.1" xmlns="http://www.w3.org/2000/svg" xmlns:xlink="http://www.w3.org/1999/xlink">
    <!-- Generator: Sketch 64 (93537) - https://sketch.com -->
    <title>icon/burger</title>
    <desc>Created with Sketch.</desc>
    <g id="Web---Home-page" stroke="none" stroke-width="1" fill="none" fill-rule="evenodd">
        <g id="Home-Page-NEW-1-Copy-8" transform="translate(-344.000000, -116.000000)" fill="$color-dark-gray">
            <g id="header-NEW" transform="translate(0.000000, 36.000000)">
                <g id="header/index-page">
                    <g id="Group-2" transform="translate(220.000000, 21.000000)">
                        <path d="M139.33287,70.1666667 C139.667821,70.1666667 139.945117,70.4112203 139.992767,70.7342396 L140,70.8333333 C140,71.2015232 139.694666,71.5 139.33287,71.5 L124.66713,71.5 C124.298684,71.5 124,71.2040901 124,70.8333333 C124,70.4651435 124.305334,70.1666667 124.66713,70.1666667 L139.33287,70.1666667 Z M139.33287,64.8333333 C139.667821,64.8333333 139.945117,65.077887 139.992767,65.4009063 L140,65.5 C140,65.8681898 139.694666,66.1666667 139.33287,66.1666667 L124.66713,66.1666667 C124.298684,66.1666667 124,65.8707568 124,65.5 C124,65.1318102 124.305334,64.8333333 124.66713,64.8333333 L139.33287,64.8333333 Z M139.33287,59.5 C139.667821,59.5 139.945117,59.7445536 139.992767,60.067573 L140,60.1666667 C140,60.5348565 139.694666,60.8333333 139.33287,60.8333333 L124.66713,60.8333333 C124.298684,60.8333333 124,60.5374235 124,60.1666667 C124,59.7984768 124.305334,59.5 124.66713,59.5 L139.33287,59.5 Z" id="icon/burger"/>
                    </g>
                </g>
            </g>
        </g>
    </g>
</svg>