<?xml version="1.0" encoding="UTF-8"?>
<svg width="24px" height="24px" viewBox="0 0 24 24" version="1.1" xmlns="http://www.w3.org/2000/svg" xmlns:xlink="http://www.w3.org/1999/xlink">
    <!-- Generator: Sketch 61.2 (89653) - https://sketch.com -->
    <title>icon/business</title>
    <desc>Created with Sketch.</desc>
    <g id="icon/business" stroke="none" stroke-width="1" fill="none" fill-rule="evenodd">
        <g transform="translate(2.000000, 4.000000)" fill="#999999" fill-rule="nonzero">
            <path d="M2.5,12.53 C2.85438271,12.53 3.14725823,12.7933436 3.19360983,13.1350141 L3.2,13.23 L3.2,15.23 C3.2,15.6165993 2.88659932,15.93 2.5,15.93 C2.14561729,15.93 1.85274177,15.6666564 1.80639017,15.3249859 L1.8,15.23 L1.8,13.23 C1.8,12.8434007 2.11340068,12.53 2.5,12.53 Z M7.5,9.53 C7.85438271,9.53 8.14725823,9.79334362 8.19360983,10.1350141 L8.2,10.23 L8.2,15.23 C8.2,15.6165993 7.88659932,15.93 7.5,15.93 C7.14561729,15.93 6.85274177,15.6666564 6.80639017,15.3249859 L6.8,15.23 L6.8,10.23 C6.8,9.84340068 7.11340068,9.53 7.5,9.53 Z M12.5,11.53 C12.8543827,11.53 13.1472582,11.7933436 13.1936098,12.1350141 L13.2,12.23 L13.2,15.23 C13.2,15.6165993 12.8865993,15.93 12.5,15.93 C12.1456173,15.93 11.8527418,15.6666564 11.8063902,15.3249859 L11.8,15.23 L11.8,12.23 C11.8,11.8434007 12.1134007,11.53 12.5,11.53 Z M17.5,6.53 C17.8543827,6.53 18.1472582,6.79334362 18.1936098,7.13501415 L18.2,7.23 L18.2,15.23 C18.2,15.6165993 17.8865993,15.93 17.5,15.93 C17.1456173,15.93 16.8527418,15.6666564 16.8063902,15.3249859 L16.8,15.23 L16.8,7.23 C16.8,6.84340068 17.1134007,6.53 17.5,6.53 Z M17.5,0.08 C18.6839851,0.08 19.65,1.04601491 19.65,2.23 C19.65,3.41398509 18.6839851,4.38 17.5,4.38 C17.1624483,4.38 16.8426134,4.30148152 16.5578298,4.16177899 L14.431779,6.2878298 C14.5714815,6.57261345 14.65,6.89244833 14.65,7.23 C14.65,8.41398509 13.6839851,9.38 12.5,9.38 C11.3160149,9.38 10.35,8.41398509 10.35,7.23 C10.35,6.97668571 10.3942192,6.73334896 10.4753315,6.50731579 L8.64933327,5.04553495 C8.31652715,5.25721202 7.92211642,5.38 7.5,5.38 C7.16244833,5.38 6.84261345,5.30148152 6.5578298,5.16177899 L4.43177899,7.2878298 C4.57148152,7.57261345 4.65,7.89244833 4.65,8.23 C4.65,9.41398509 3.68398509,10.38 2.5,10.38 C1.31601491,10.38 0.35,9.41398509 0.35,8.23 C0.35,7.04601491 1.31601491,6.08 2.5,6.08 C2.83755167,6.08 3.15738655,6.15851848 3.4421702,6.29822101 L5.56822101,4.1721702 C5.42851848,3.88738655 5.35,3.56755167 5.35,3.23 C5.35,2.04601491 6.31601491,1.08 7.5,1.08 C8.68398509,1.08 9.65,2.04601491 9.65,3.23 C9.65,3.48331429 9.60578081,3.72665104 9.52466845,3.95268421 L11.3506667,5.41446505 C11.6834729,5.20278798 12.0778836,5.08 12.5,5.08 C12.8375517,5.08 13.1573866,5.15851848 13.4421702,5.29822101 L15.568221,3.1721702 C15.4285185,2.88738655 15.35,2.56755167 15.35,2.23 C15.35,1.04601491 16.3160149,0.08 17.5,0.08 Z M2.5,7.38 C2.03398509,7.38 1.65,7.76398509 1.65,8.23 C1.65,8.69601491 2.03398509,9.08 2.5,9.08 C2.96601491,9.08 3.35,8.69601491 3.35,8.23 C3.35,7.76398509 2.96601491,7.38 2.5,7.38 Z M12.5,6.38 C12.0339851,6.38 11.65,6.76398509 11.65,7.23 C11.65,7.69601491 12.0339851,8.08 12.5,8.08 C12.9660149,8.08 13.35,7.69601491 13.35,7.23 C13.35,6.76398509 12.9660149,6.38 12.5,6.38 Z M7.5,2.38 C7.03398509,2.38 6.65,2.76398509 6.65,3.23 C6.65,3.69601491 7.03398509,4.08 7.5,4.08 C7.96601491,4.08 8.35,3.69601491 8.35,3.23 C8.35,2.76398509 7.96601491,2.38 7.5,2.38 Z M17.5,1.38 C17.0339851,1.38 16.65,1.76398509 16.65,2.23 C16.65,2.69601491 17.0339851,3.08 17.5,3.08 C17.9660149,3.08 18.35,2.69601491 18.35,2.23 C18.35,1.76398509 17.9660149,1.38 17.5,1.38 Z"/>
        </g>
    </g>
</svg>