<?xml version="1.0" encoding="UTF-8"?>
<svg width="24px" height="24px" viewBox="0 0 24 24" version="1.1" xmlns="http://www.w3.org/2000/svg" xmlns:xlink="http://www.w3.org/1999/xlink">
    <!-- Generator: Sketch 61.2 (89653) - https://sketch.com -->
    <title>icon/children's World</title>
    <desc>Created with Sketch.</desc>
    <g id="icon/children's-World" stroke="none" stroke-width="1" fill="none" fill-rule="evenodd">
        <g transform="translate(2.000000, 3.000000)" fill="#999999" fill-rule="nonzero">
            <path d="M16.913392,0.3 L17.2530157,1.828 L19.371439,3.53893698 C19.6486217,3.76280999 19.8242306,4.08584062 19.8638019,4.43589207 L19.8723317,4.58735815 C19.8723317,5.28787582 19.3378547,5.86355971 18.6544473,5.92886329 L18.5246572,5.93503257 L16.8376998,5.93503257 C16.8211825,5.93503257 16.8046976,5.93649289 16.7884375,5.93939647 C16.6578449,5.96271658 16.5646503,6.07299452 16.5578216,6.19997218 L16.5618311,6.26452739 L17.926815,13.9073131 C18.1248803,13.7591666 18.3201088,13.6046258 18.5125139,13.4436883 C18.7878711,13.2133653 19.1978059,13.2498728 19.4281289,13.52523 C19.6584519,13.8005872 19.6219445,14.2105221 19.3465872,14.4408451 C16.6828842,16.6689038 13.5115952,17.7853979 9.8597831,17.7853979 C6.20797104,17.7853979 3.03668203,16.6689038 0.372978971,14.4408451 C0.0976217372,14.2105221 0.0611142811,13.8005872 0.291437286,13.52523 C0.521760291,13.2498728 0.93169512,13.2133653 1.20705235,13.4436883 C1.43395265,13.6334794 1.66477943,13.8143745 1.89955485,13.9863775 L3.64234933,7.70184746 C3.56776434,7.78359399 3.50088605,7.87317276 3.44307688,7.96964981 L3.37312759,8.09891532 L3.12563954,8.6083312 C2.96876805,8.93122689 2.5798399,9.0658161 2.25694421,8.90894461 C1.96633809,8.76776027 1.82826021,8.43861004 1.91791002,8.13880087 L1.9563308,8.04024928 L2.20381885,7.53083341 C2.63412332,6.64511822 3.47232228,6.03359976 4.43788112,5.88858856 L4.6326079,5.8658634 L5.45837394,5.79576158 C5.49702495,5.79055852 5.53597223,5.78644273 5.57517928,5.78344192 L5.651,5.78 L5.68998695,5.77755336 C5.7253063,5.77460356 5.76020151,5.77453572 5.7944408,5.7771538 L7.653,5.78 L7.65335255,5.7752982 L11.482,5.775 L11.482557,5.13604651 C11.482557,2.53735758 13.532274,0.417405708 16.103187,0.304711954 L16.3186035,0.3 L16.913392,0.3 Z M9.8597831,11.5568784 C7.53312356,11.5568784 6.02177323,12.5971556 5.21399249,14.764231 L5.12712875,15.0096586 L4.92020197,15.6258414 L4.86248415,15.6066027 C6.39342161,16.1927216 8.05778545,16.4853979 9.8597831,16.4853979 C11.6586145,16.4853979 13.3202954,16.1937492 14.8490109,15.6096896 L14.7993642,15.6258414 L14.5924375,15.0096586 C13.8086265,12.6756402 12.2726152,11.5568784 9.8597831,11.5568784 Z M15.8760157,1.628 L15.7450384,1.64628088 C14.1271292,1.9101762 12.8780911,3.27204875 12.7877892,4.94203354 L12.782557,5.13604651 L12.782557,7.73346763 C12.782557,8.55772051 12.1514896,9.23457971 11.3461578,9.30724229 L11.2023244,9.31370019 L8.23650699,9.31370019 C7.41225411,9.31370019 6.73539491,8.68263282 6.66273232,7.877301 L6.65627443,7.73346763 L6.65601566,7.079 L5.749,7.077 L5.6043488,7.08845109 C5.36037279,7.13083881 5.15221722,7.2926201 5.05127221,7.51963061 L5.01401158,7.62351314 L3.04091501,14.7344335 C3.26516194,14.8649589 3.49268447,14.9881779 3.72349909,15.1040935 L3.89476304,14.595805 C4.85536145,11.7353522 6.88524169,10.2568784 9.8597831,10.2568784 C12.7413701,10.2568784 14.7364147,11.6443914 15.7316182,14.3316893 L15.8248032,14.595805 L15.995889,15.1041829 C16.2502049,14.9764701 16.5005242,14.8398909 16.7468691,14.6944414 L15.2820753,6.49305522 C15.128656,5.63390753 15.700762,4.81305985 16.5599097,4.65964062 L16.6982608,4.6411966 L16.8376998,4.63503257 L18.5246572,4.63503257 C18.5509871,4.63503257 18.5723317,4.613688 18.5723317,4.58735815 L18.5676744,4.56680633 L18.5546124,4.55026991 L16.0828761,2.55391454 L15.8760157,1.628 Z M11.482,7.075 L7.956,7.075 L7.95627443,7.73346763 C7.95627443,7.86612606 8.04845235,7.97725518 8.17225223,8.00629905 L8.23650699,8.01370019 L11.2023244,8.01370019 C11.3349828,8.01370019 11.4461119,7.92152227 11.4751558,7.79772238 L11.482557,7.73346763 L11.482,7.075 Z"/>
        </g>
    </g>
</svg>