<?xml version="1.0" encoding="UTF-8"?>
<svg width="24px" height="24px" viewBox="0 0 24 24" version="1.1" xmlns="http://www.w3.org/2000/svg" xmlns:xlink="http://www.w3.org/1999/xlink">
    <!-- Generator: Sketch 61.2 (89653) - https://sketch.com -->
    <title>icon/clothes</title>
    <desc>Created with Sketch.</desc>
    <g id="icon/clothes" stroke="none" stroke-width="1" fill="none" fill-rule="evenodd">
        <g transform="translate(3.000000, 3.000000)" fill="#999999" fill-rule="nonzero" stroke="#979797" stroke-width="0.2">
            <path d="M15.065256,1.17390234 L13.9388124,1.17390234 L12.9368925,0.172019531 C12.8255875,0.060609375 12.6692474,0 12.5217666,0 L5.47826851,0 C5.32941666,0 5.17472886,0.0603632813 5.0631427,0.172019531 L4.06125793,1.17390234 L2.93477917,1.17390234 C1.31653382,1.17390234 0,2.49046875 0,4.10871094 L0,15.0652266 C0,16.6834687 1.31653382,18 2.93477917,18 L15.0652208,18 C16.6834662,18 18,16.6834687 18,15.0652266 L18,4.10871094 C18,2.49046875 16.6835013,1.17390234 15.065256,1.17390234 Z M12.585259,1.48053516 L13.0241153,1.91942578 L11.6093899,6.16369922 L9.86011691,5.11414453 L12.585259,1.48053516 Z M11.347862,1.17390234 L10.4674423,2.34780469 L9,4.30433655 L7.53266315,2.34780469 L6.65224346,1.17390234 L11.347862,1.17390234 Z M5.4147762,1.48053516 L8.13998855,5.11410937 L6.39068045,6.16369922 L4.97591987,1.91942578 L5.4147762,1.48053516 Z M15.065256,16.8260977 L2.93477917,16.8260977 C1.96383196,16.8260977 1.17390464,16.0361719 1.17390464,15.0652266 L1.17390464,4.10871094 C1.17390464,3.13776563 1.96383196,2.34783984 2.93477917,2.34783984 L3.88129274,2.34783984 L5.27699859,6.53494922 C5.51377639,7.24538672 6.34877412,7.55782031 6.99463085,7.17032813 L8.41304768,6.31933594 L8.41304768,10.2522305 C8.41304768,10.5763711 8.67584116,10.8391992 9.00001758,10.8391992 C9.32415884,10.8391992 9.58698747,10.5764063 9.58698747,10.2522305 L9.58698747,6.31930078 L11.0054043,7.17036328 C11.6493274,7.55673047 12.4855205,7.24763672 12.7230717,6.53501953 L14.1187776,2.34783984 L15.065256,2.34783984 C16.0362032,2.34783984 16.8261305,3.13780078 16.8261305,4.10874609 L16.8261305,15.0652266 C16.8261305,16.0361719 16.0362032,16.8260977 15.065256,16.8260977 Z"/>
        </g>
    </g>
</svg>