<?xml version="1.0" encoding="UTF-8"?>
<svg width="24px" height="24px" viewBox="0 0 24 24" version="1.1" xmlns="http://www.w3.org/2000/svg" xmlns:xlink="http://www.w3.org/1999/xlink">
    <!-- Generator: Sketch 61.2 (89653) - https://sketch.com -->
    <title>icon/construction</title>
    <desc>Created with Sketch.</desc>
    <g id="icon/construction" stroke="none" stroke-width="1" fill="none" fill-rule="evenodd">
        <g transform="translate(2.000000, 2.000000)" fill="#999999" fill-rule="nonzero" stroke="#999999" stroke-width="0.2">
            <path d="M19.7710291,8.52104854 L17.1389126,5.8888932 L18.696,4.33180583 C18.8064078,4.22139806 18.868466,4.07165049 18.868466,3.91553398 C18.868466,3.75937864 18.8064078,3.60963107 18.696,3.49926214 L15.9691262,0.772427184 C15.7392233,0.542524272 15.3664466,0.542524272 15.1365049,0.772427184 L13.5794175,2.32947573 L12.6671456,1.41720388 C12.5567379,1.30679612 12.4069903,1.24473786 12.2508738,1.24473786 C12.0947184,1.24473786 11.9450097,1.30675728 11.8346019,1.41720388 C11.4864078,1.76539806 11.0234563,1.95716505 10.531068,1.95716505 C10.0386796,1.95716505 9.57572816,1.76539806 9.22753398,1.41720388 C9.11712621,1.30679612 8.96737864,1.24473786 8.81126214,1.24473786 C8.65514563,1.24473786 8.50539806,1.30675728 8.39499029,1.41720388 L6.79930097,3.01293204 C6.56935922,3.24283495 6.56935922,3.61561165 6.79930097,3.8455534 L9.43141748,6.4776699 L0.232466019,15.6765049 C0.122058252,15.7868738 0.06,15.9366214 0.06,16.0927767 C0.06,16.248932 0.122058252,16.3986796 0.232466019,16.5090485 L2.95930097,19.2358835 C3.07425243,19.350835 3.22493204,19.4083495 3.37557282,19.4083495 C3.52621359,19.4083495 3.67693204,19.350835 3.79184466,19.2358835 L12.9906796,10.0370485 L15.6227961,12.669165 C15.7377476,12.7841165 15.8884272,12.8416311 16.039068,12.8416311 C16.1897087,12.8416311 16.3404272,12.7841165 16.4553398,12.669165 L19.7709126,9.35363107 C19.8813204,9.2432233 19.9433786,9.09347573 19.9433786,8.93735922 C19.9433786,8.78124272 19.8814369,8.63145631 19.7710291,8.52104854 Z M15.5528155,2.02132039 L17.4470291,3.91553398 L16.3062913,5.05627184 L14.4121165,3.16201942 L15.5528155,2.02132039 Z M3.37557282,17.9869903 L1.48135922,16.0927767 L10.2638835,7.31025243 L12.1581359,9.20446602 L3.37557282,17.9869903 Z M16.0391845,11.4202718 L8.04807767,3.42924272 L8.85149515,2.62578641 C9.34434951,2.95681553 9.924,3.13460194 10.5310291,3.13460194 C11.1380194,3.13460194 11.7177087,2.95681553 12.2105631,2.62578641 L18.5220971,8.93739806 L16.0391845,11.4202718 Z"/>
        </g>
    </g>
</svg>