<?xml version="1.0" encoding="UTF-8"?>
<svg width="24px" height="24px" viewBox="0 0 24 24" version="1.1" xmlns="http://www.w3.org/2000/svg" xmlns:xlink="http://www.w3.org/1999/xlink">
    <!-- Generator: Sketch 61.2 (89653) - https://sketch.com -->
    <title>icon/dating and congratulations</title>
    <desc>Created with Sketch.</desc>
    <g id="icon/dating-and-congratulations" stroke="none" stroke-width="1" fill="none" fill-rule="evenodd">
        <g transform="translate(4.000000, 1.000000)" fill="#999999" fill-rule="nonzero" stroke="#999999" stroke-width="0.7">
            <path d="M11.1485937,-5.15143483e-14 C13.5476953,-5.15143483e-14 15.5,2.05605469 15.5,4.58332031 C15.5,5.80324219 15.0499609,6.95109375 14.2337109,7.81574219 L14.2337109,7.81574219 L9.206875,13.08875 C9.02964844,13.2746484 8.81570312,13.4082812 8.58300781,13.4950391 L8.58300781,13.4950391 L9.60726562,15.2021875 C9.68457031,15.3311719 9.68621094,15.4914844 9.61296875,15.6221094 C9.53890625,15.7526953 9.39972656,15.8332812 9.25,15.8332812 L9.25,15.8332812 L8.37222656,15.8332812 C8.37222656,16.2702675 8.28539062,17.2299 8,17.6835975 C7.71460938,18.137295 7.58335937,18.3210476 7.58335937,18.714096 C7.58335938,19.1071444 7.93355469,19.4147216 8.15289062,19.8803499 C8.37222656,20.3459783 8.41671875,20.9163672 8.41671875,21.5832812 C8.41671875,21.8135937 8.23035156,21.9999609 8.00003906,21.9999609 C7.76972656,21.9999609 7.58335938,21.8135937 7.58335938,21.5832812 C7.58335938,21.2085156 7.70630811,20.9219906 7.50183594,20.4011703 C7.29736377,19.8803499 6.75,19.5773964 6.75,18.714096 C6.75,17.8507957 7.09105597,17.7011434 7.34894531,17.1627772 C7.58335937,16.6734176 7.44476562,15.9602344 7.501875,15.8333203 L7.501875,15.8333203 L6.75003906,15.8333203 C6.60027344,15.8333203 6.46113281,15.7527734 6.38707031,15.6221484 C6.31382812,15.4915234 6.31546875,15.3312109 6.39277344,15.2022266 L6.39277344,15.2022266 L7.41710937,13.4950391 C7.18476562,13.4082422 6.97097656,13.2746484 6.79398437,13.0887891 L6.79398437,13.0887891 L1.76710937,7.81738281 C0.950039062,6.95109375 0.5,5.80320312 0.5,4.58332031 C0.5,2.05605469 2.45230469,-5.15143483e-14 4.85222656,-5.15143483e-14 C5.97039062,-5.15143483e-14 7.11703125,0.605078125 8,1.64144531 C8.88460938,0.605078125 10.0304297,-5.15143483e-14 11.1485937,-5.15143483e-14 Z M8,14.1430859 L7.48566406,15 L8.51433594,15 L8,14.1430859 Z M11.1485938,0.833359375 C10.1516797,0.833359375 9.101875,1.47910156 8.34097656,2.56105469 C8.26285156,2.67210937 8.13589844,2.73804687 8,2.73804687 C7.86410156,2.73804687 7.73714844,2.67214844 7.65902344,2.56105469 C6.89894531,1.47910156 5.84914063,0.833359375 4.85222656,0.833359375 C2.91214844,0.833359375 1.33335938,2.51546875 1.33335938,4.58335937 C1.33335938,5.58960937 1.70199219,6.53445312 2.37175781,7.24367187 L2.37175781,7.24367187 L7.39695313,12.5133984 C7.55566406,12.6802344 7.7696875,12.7717969 8,12.7717969 L8,12.7717969 L8.11409288,12.7642468 C8.30011719,12.7392079 8.47078776,12.6525326 8.60304688,12.5138281 L8.60304688,12.5138281 L13.6290625,7.24207031 C14.2980078,6.53445312 14.6666797,5.58960937 14.6666797,4.58335937 C14.6666797,2.51550781 13.0887109,0.833359375 11.1485938,0.833359375 Z M5.23136734,3 C5.3798494,3 5.49997482,3.11181944 5.5,3.24998242 C5.5,3.38816884 5.3798494,3.49998828 5.23136734,3.49998828 C4.5729189,3.49998828 4.03724014,4.06077296 4.03726532,4.74999414 C4.03726532,4.88818056 3.91711472,5 3.76863266,5 C3.6201506,5 3.5,4.88818056 3.5,4.74999414 C3.5,3.78515012 4.27648362,3 5.23136734,3 Z"/>
        </g>
    </g>
</svg>