<svg width="20" height="20" viewBox="0 0 20 20" xmlns="http://www.w3.org/2000/svg"><title>Group</title><g fill="none" fill-rule="evenodd"><g stroke-linecap="round" stroke-linejoin="round" stroke="#B5B8BC" stroke-width="1.2"><path d="M2 5.378c0 .533.267.978.711 1.333l5.333 3.645c1.245.8 2.756.8 4 0L17.378 6.8c.355-.444.622-.889.622-1.422 0-.89-.711-1.6-1.6-1.6H3.6c-.889 0-1.6.71-1.6 1.6z"/><path d="M2 5.556v8.888c0 .978.8 1.778 1.778 1.778h12.444c.978 0 1.778-.8 1.778-1.778V5.556M2.5 15.5l5-5M12.5 10.5l5 5"/></g><path d="M0 0h20v20H0z"/></g></svg>