<?xml version="1.0" encoding="UTF-8"?>
<svg width="24px" height="24px" viewBox="0 0 24 24" version="1.1" xmlns="http://www.w3.org/2000/svg" xmlns:xlink="http://www.w3.org/1999/xlink">
    <!-- Generator: Sketch 61.2 (89653) - https://sketch.com -->
    <title>icon/party</title>
    <desc>Created with Sketch.</desc>
    <g id="icon/party" stroke="none" stroke-width="1" fill="none" fill-rule="evenodd">
        <g transform="translate(2.000000, 2.000000)" fill="#999999" fill-rule="nonzero">
            <path d="M18.75,5.57546882 L14.795,5.57546882 C15.07875,5.38171882 15.3225,5.18921882 15.4925,5.01671882 C16.5,4.00296882 16.5,2.35296882 15.4925,1.33921882 C14.51375,0.354218824 12.80625,0.352968824 11.82625,1.33921882 C11.285,1.88296882 9.84625,4.09671882 10.045,5.57546882 L9.955,5.57546882 C10.1525,4.09671882 8.715,1.88296882 8.17375,1.33921882 C7.19375,0.352968824 5.48625,0.354218824 4.5075,1.33921882 C3.5,2.35296882 3.5,4.00296882 4.50625,5.01671882 C4.6775,5.18921882 4.92125,5.38171882 5.205,5.57546882 L1.25,5.57546882 C0.56125,5.57546882 0,6.13671882 0,6.82546882 L0,9.95046882 C0,10.2954688 0.28,10.5754688 0.625,10.5754688 L1.25,10.5754688 L1.25,18.0754688 C1.25,18.7642188 1.81125,19.3254688 2.5,19.3254688 L17.5,19.3254688 C18.18875,19.3254688 18.75,18.7642188 18.75,18.0754688 L18.75,10.5754688 L19.375,10.5754688 C19.72,10.5754688 20,10.2954688 20,9.95046882 L20,6.82546882 C20,6.13671882 19.43875,5.57546882 18.75,5.57546882 Z M5.39375,2.22046882 C5.6475,1.96546882 5.98375,1.82546882 6.34125,1.82546882 C6.6975,1.82546882 7.03375,1.96546882 7.2875,2.22046882 C8.13,3.06796882 8.9675,5.23296882 8.67625,5.53421882 C8.67625,5.53421882 8.62375,5.57546882 8.445,5.57546882 C7.58125,5.57546882 5.9325,4.67796882 5.39375,4.13546882 C4.87,3.60796882 4.87,2.74796882 5.39375,2.22046882 Z M9.375,18.0754688 L2.5,18.0754688 L2.5,10.5754688 L9.375,10.5754688 L9.375,18.0754688 Z M9.375,9.32546882 L1.25,9.32546882 L1.25,6.82546882 L8.445,6.82546882 L9.375,6.82546882 L9.375,9.32546882 Z M12.7125,2.22046882 C13.22,1.71171882 14.1,1.71296882 14.60625,2.22046882 C15.13,2.74796882 15.13,3.60796882 14.60625,4.13546882 C14.0675,4.67796882 12.41875,5.57546882 11.555,5.57546882 C11.37625,5.57546882 11.32375,5.53546882 11.3225,5.53421882 C11.0325,5.23296882 11.87,3.06796882 12.7125,2.22046882 Z M17.5,18.0754688 L10.625,18.0754688 L10.625,10.5754688 L17.5,10.5754688 L17.5,18.0754688 Z M18.75,9.32546882 L10.625,9.32546882 L10.625,6.82546882 L11.555,6.82546882 L18.75,6.82546882 L18.75,9.32546882 Z"/>
        </g>
    </g>
</svg>