<?xml version="1.0" encoding="UTF-8"?>
<svg width="24px" height="24px" viewBox="0 0 24 24" version="1.1" xmlns="http://www.w3.org/2000/svg" xmlns:xlink="http://www.w3.org/1999/xlink">
    <!-- Generator: Sketch 61.2 (89653) - https://sketch.com -->
    <title>iocn/other</title>
    <desc>Created with Sketch.</desc>
    <g id="iocn/other" stroke="none" stroke-width="1" fill="none" fill-rule="evenodd">
        <g transform="translate(2.000000, 2.000000)" fill="#999999" fill-rule="nonzero" stroke="#999999" stroke-width="0.6">
            <path d="M19.8995703,11.3210547 C19.8970313,11.3035937 19.8940625,11.2894141 19.8904688,11.2752734 C19.8894531,11.2712891 19.8883203,11.2674609 19.8872266,11.2635547 C19.8839453,11.2521484 19.8800391,11.2408594 19.8756641,11.2296484 C19.8741406,11.2258203 19.8727734,11.221875 19.8711328,11.2180859 C19.8651172,11.2041016 19.8585156,11.1903125 19.8507422,11.1767969 C19.8422656,11.1621484 19.8336328,11.1495703 19.8245703,11.1374219 C19.8221094,11.1341016 19.819375,11.1309375 19.8167969,11.1277344 C19.8092969,11.1183203 19.8014453,11.1093359 19.7932031,11.1007422 C19.7903906,11.0978125 19.7875781,11.0948828 19.7846875,11.0920703 C19.7742578,11.0818359 19.7633594,11.0721875 19.7519531,11.0632812 C19.7367969,11.0515234 19.7234766,11.0426953 19.7096875,11.0346094 L15.1483203,8.40105469 L15.1483203,3.13734375 C15.1483203,3.13621094 15.148125,3.13515625 15.1480859,3.13402344 C15.1479688,3.11796875 15.1469922,3.10191406 15.1448828,3.08585937 C15.1447656,3.08503906 15.1445703,3.08425781 15.1444531,3.08347656 C15.1424609,3.06886719 15.1394141,3.05441406 15.1357031,3.03996094 C15.1347656,3.03625 15.1336719,3.03253906 15.1326172,3.02882812 C15.1292578,3.01714844 15.1252734,3.00554687 15.1207813,2.9940625 C15.119375,2.99046875 15.1180859,2.98679687 15.1165625,2.98328125 C15.1104297,2.96902344 15.10375,2.95492187 15.0957813,2.94113281 C15.0878516,2.92738281 15.0790234,2.91457031 15.0697656,2.90214844 C15.0674219,2.89898437 15.0648047,2.89597656 15.0623438,2.89289062 C15.0547266,2.88332031 15.0467578,2.87417969 15.0383984,2.86550781 C15.0356641,2.86265625 15.0328906,2.85976562 15.0300781,2.85699219 C15.0196094,2.84671875 15.0086719,2.83703125 14.9972656,2.82808594 C14.9964844,2.82746094 14.9957422,2.82675781 14.9949609,2.82613281 C14.9821484,2.81632812 14.9687891,2.8075 14.9549609,2.799375 L10.1976953,0.052578125 C10.0762891,-0.0175 9.92667969,-0.0175390625 9.80523438,0.052578125 L5.05089844,2.79746094 C5.03433594,2.80738281 5.02089844,2.81625 5.00796875,2.82617187 C4.99457031,2.83671875 4.98347656,2.84660156 4.97285156,2.85699219 C4.97007813,2.85972656 4.96734375,2.86253906 4.96464844,2.86535156 C4.95628906,2.8740625 4.94832031,2.88320312 4.94070313,2.89277344 C4.93824219,2.89585937 4.935625,2.89890625 4.93324219,2.90210937 C4.92398438,2.91449219 4.91519531,2.92734375 4.90726563,2.94105469 C4.89933594,2.95480469 4.89261719,2.96882812 4.88652344,2.98304687 C4.88496094,2.98671875 4.88363281,2.99054687 4.88214844,2.99425781 C4.87769531,3.00558594 4.87378906,3.01699219 4.87046875,3.02851562 C4.869375,3.03230469 4.86828125,3.03613281 4.86726563,3.03996094 C4.86363281,3.05421875 4.860625,3.06855469 4.85863281,3.08296875 C4.85851563,3.08394531 4.85824219,3.08484375 4.858125,3.08582031 C4.85601563,3.10179687 4.85507813,3.11785156 4.85496094,3.13382812 C4.85496094,3.13496094 4.85472656,3.13609375 4.85472656,3.13722656 L4.85472656,8.40085937 L0.296210938,11.0325391 C0.295234375,11.0330859 0.294414063,11.0338281 0.293476563,11.034375 C0.279609375,11.0425 0.266171875,11.0513672 0.253320313,11.06125 C0.239882813,11.0717969 0.228828125,11.0816406 0.218203125,11.0921094 C0.215390625,11.0948437 0.212695313,11.0976953 0.209960938,11.1005078 C0.201640625,11.1091797 0.193671875,11.1182812 0.186054688,11.1278516 C0.183554688,11.1309766 0.180898438,11.1340625 0.178515625,11.1372656 C0.169375,11.1494922 0.160703125,11.1621875 0.152851563,11.1757422 C0.144609375,11.1900391 0.137890625,11.2039453 0.131875,11.2180859 C0.130273438,11.2218359 0.12890625,11.2257422 0.127382813,11.2295703 C0.123007813,11.2407812 0.119101563,11.2521484 0.11578125,11.2635547 C0.114648438,11.2674219 0.113554688,11.2712891 0.112539063,11.2751953 C0.10890625,11.289375 0.1059375,11.3035937 0.103945313,11.3179297 C0.101289063,11.3369922 0.100351563,11.3530078 0.100234375,11.3690234 L0.1,16.8625781 C0.1,17.0028125 0.17484375,17.1323437 0.29625,17.2024609 L5.05097656,19.9473047 C5.06789063,19.9566797 5.08222656,19.9638672 5.0971875,19.9700781 C5.11335938,19.9765234 5.12722656,19.9810937 5.14140625,19.9850781 C5.14527344,19.9861719 5.14917969,19.9871094 5.15304688,19.9880469 C5.16460938,19.9908984 5.17640625,19.9932031 5.18835938,19.995 C5.19238281,19.995625 5.19640625,19.9963672 5.20046875,19.9968359 C5.21578125,19.9986328 5.23132813,19.9998437 5.24710938,19.9998437 C5.26289063,19.9998437 5.2784375,19.9986328 5.29375,19.9968359 C5.2978125,19.9963672 5.30183594,19.9955859 5.30585938,19.995 C5.3178125,19.9932031 5.32957031,19.9909375 5.34113281,19.9880469 C5.34503906,19.9870703 5.34894531,19.9861328 5.35285156,19.9850391 C5.36695313,19.9811328 5.38074219,19.9765234 5.39414063,19.9710937 C5.39511719,19.9707031 5.39609375,19.9704297 5.39707031,19.97 C5.41199219,19.9638281 5.42632813,19.9566406 5.44019531,19.94875 L10.0013281,17.3156641 L14.5594141,19.9472656 C14.5764063,19.9566797 14.5907031,19.9638281 14.6055859,19.97 C14.6220313,19.9765625 14.6357813,19.9810937 14.6498438,19.9850391 C14.65375,19.9861328 14.6576953,19.9870703 14.6616016,19.9880469 C14.673125,19.9908984 14.6849219,19.9932031 14.6968359,19.995 C14.7008984,19.995625 14.7049219,19.9963672 14.7089844,19.9968359 C14.7242969,19.9986328 14.7398047,19.9998437 14.755625,19.9998437 C14.7714453,19.9998437 14.7869531,19.9986328 14.8022656,19.9968359 C14.8063281,19.9963672 14.8103516,19.9955859 14.8144141,19.995 C14.8263281,19.9932031 14.838125,19.9909375 14.8496484,19.9880469 C14.8535547,19.9870703 14.8575,19.9861328 14.8614063,19.9850391 C14.8754688,19.9811328 14.8891797,19.9765625 14.9025781,19.9711328 C14.9035938,19.9707422 14.9046484,19.9704297 14.9056641,19.97 C14.9205469,19.9638281 14.9348438,19.9566406 14.94875,19.9487891 L19.7065625,17.2024219 C19.8280078,17.1323437 19.9028662,17.0027734 19.9028662,16.8625391 L19.9028662,11.3724609 C19.9026172,11.3530078 19.9016797,11.3370312 19.8995703,11.3210547 Z M14.3633203,8.40097656 L10.3939453,10.6926562 L10.3939453,6.10921875 L14.3633203,3.8171875 L14.3633203,8.40097656 Z M5.24710938,9.08074219 L9.21652344,11.3724609 L5.24697266,13.6641797 L1.27742188,11.3724219 L5.24710938,9.08074219 Z M4.8546875,18.9277734 L0.884882813,16.6360547 L0.884882813,12.0521875 L2.57574219,13.0283203 C2.628125,13.0828906 2.69394531,13.1201953 2.765,13.1375781 L4.8546875,14.3439844 L4.8546875,18.9277734 Z M9.60898438,16.6360547 L5.63960938,18.9277344 L5.63960938,14.3439453 L9.60898438,12.0521875 L9.60898438,16.6360547 Z M5.63960938,8.40101562 L5.63960938,3.81714844 L7.32941406,4.79292969 C7.38207031,4.84804687 7.4484375,4.885625 7.52007813,4.90300781 L9.60902344,6.10921875 L9.60902344,10.6926953 L5.63960938,8.40101562 Z M6.03203125,3.13382812 L10.0014844,0.845625 L13.9708594,3.13734375 L10.0014844,5.42941406 L6.03203125,3.13382812 Z M10.3939453,16.6360547 L10.3939453,12.0521875 L12.0847656,13.0283594 C12.1369922,13.0827734 12.2027344,13.1199609 12.2736719,13.1374219 L14.3633203,14.3438672 L14.3633203,18.9276953 L10.3939453,16.6360547 Z M14.7557813,13.6641797 L10.7863672,11.3690234 L14.755625,9.08074219 L18.7254688,11.3724609 L14.7557813,13.6641797 Z M15.1482422,18.9277734 L15.1482422,14.3439453 L19.1180078,12.0521875 L19.1180078,16.6360547 L15.1482422,18.9277734 Z"/>
        </g>
    </g>
</svg>