<?xml version="1.0" encoding="UTF-8"?>
<svg width="24px" height="24px" viewBox="0 0 24 24" version="1.1" xmlns="http://www.w3.org/2000/svg" xmlns:xlink="http://www.w3.org/1999/xlink">
    <!-- Generator: Sketch 61.2 (89653) - https://sketch.com -->
    <title>icon/agriculture</title>
    <desc>Created with Sketch.</desc>
    <g id="icon/agriculture" stroke="none" stroke-width="1" fill="none" fill-rule="evenodd">
        <g transform="translate(2.000000, 2.000000)" fill="#999999" fill-rule="nonzero">
            <path d="M16.0410952,6.65509502 C18.5176168,6.12664905 20.0647879,3.57960676 19.306232,1.10006391 C19.2467254,0.905634955 19.0945553,0.753426606 18.9001264,0.693920025 C16.4156501,-0.0660509101 13.8722792,1.48762155 13.3448658,3.95863615 C13.0637393,2.90327393 12.3919574,1.9745353 11.4323947,1.37621881 C11.2598409,1.26860215 11.045143,1.25372551 10.8593952,1.33659875 C9.44477543,1.96753677 8.47932322,3.28651008 8.29839415,4.81203548 C8.09077125,4.66789646 7.86540346,4.50880432 7.54385376,4.65214022 C6.12923395,5.28304001 5.1637435,6.60201331 4.98281443,8.12757695 C4.77519154,7.98343794 4.5497855,7.82438404 4.22831229,7.96771994 C1.0936234,9.36570391 0.724919706,13.6613065 3.55641568,15.5783669 L0.679907338,18.4548752 C0.293305779,18.8414768 0.572367167,19.4994528 1.11255383,19.4994528 C1.26916016,19.4994528 1.42572825,19.4397168 1.54523858,19.3202065 L4.42182341,16.4436216 C6.34305227,19.281313 10.6368575,18.9009451 12.0324321,15.7718398 C12.1767623,15.4482632 12.0106717,15.216241 11.8725751,15.0172994 C13.3981005,14.8363703 14.7170355,13.8709181 15.3479736,12.45626 C15.4923038,12.1326834 15.3262131,11.9006613 15.1881166,11.7017196 C16.7136802,11.5207906 18.0326153,10.5553384 18.6635151,9.14068031 C18.74635,8.95497083 18.7315116,8.74027292 18.6239332,8.56771913 C18.0255403,7.60807991 17.0966104,6.93610682 16.0410952,6.65509502 L16.0410952,6.65509502 Z M18.2169862,1.78316581 C18.6401484,3.96624657 16.7187666,5.89378557 14.5304847,5.46966733 C14.1073608,3.28666306 16.0287044,1.35881811 18.2169862,1.78316581 Z M11.059446,2.60662063 C12.8118306,3.97504253 12.6291424,6.69043183 10.6998824,7.80770996 C10.3772619,7.55576307 10.1114709,7.24710136 9.9118409,6.90142014 C9.83929335,6.70266969 9.75244281,6.50965574 9.65201589,6.32383152 C9.18625069,4.92569457 9.75167794,3.36399102 11.059446,2.60662063 Z M7.74386624,5.92220034 C8.066525,6.17414723 8.3323542,6.48288542 8.53198425,6.82860489 C8.6045318,7.0273171 8.6913441,7.22025457 8.79173277,7.40604054 C9.25757446,8.8043687 8.69184126,10.366034 7.3843027,11.1232897 C7.06164395,10.8713428 6.79581474,10.5626046 6.59618469,10.2169234 C6.52363715,10.0182112 6.43682485,9.8252737 6.33639793,9.63948773 C5.87059449,8.24112132 6.43632768,6.67941776 7.74386624,5.92220034 Z M4.42832477,9.23774182 C4.75098352,9.48968871 5.01677449,9.79838865 5.21640453,10.1440699 C5.28895208,10.3428203 5.37576438,10.5357578 5.47622954,10.721582 C5.94203298,12.1199484 5.37633803,13.6815755 4.06876123,14.4387929 C2.31610885,13.0701798 2.49940901,10.3547905 4.42832477,9.23774182 L4.42832477,9.23774182 Z M5.56132089,15.9313908 C6.31532587,14.6293593 7.87362577,14.0562069 9.27788165,14.5236548 C9.46489141,14.6247701 9.65897617,14.7125767 9.85910338,14.7854302 C10.2035608,14.9849073 10.5112282,15.2501246 10.7624485,15.5718273 C9.64811508,17.4958861 6.93345239,17.6884794 5.56132089,15.9313908 Z M10.3594788,13.6631422 C10.1744577,13.5632125 9.98232331,13.4767826 9.7844907,13.4045028 C9.43827407,13.2048345 9.1291152,12.938814 8.87686237,12.6158111 C9.63205289,11.3117527 11.1913854,10.7412008 12.5937673,11.2082663 C12.7805476,11.3092286 12.9744029,11.3969205 13.1742242,11.4697358 C13.5188346,11.6692128 13.8266167,11.9345066 14.0779135,12.2562858 C13.3207343,13.5638244 11.7589542,14.1300547 10.3594788,13.6631422 Z M13.6760528,10.3479832 C13.4903433,10.2476327 13.2974824,10.1608587 13.0988849,10.0883494 C12.7531654,9.88871934 12.4444272,9.62292838 12.1924421,9.30026962 C13.3068137,7.37601954 16.0215911,7.18384694 17.3935314,8.94074432 C16.6367729,10.2474033 15.0756813,10.814322 13.6760528,10.3479832 Z"/>
        </g>
    </g>
</svg>