<?xml version="1.0" encoding="UTF-8"?>
<svg width="22px" height="22px" viewBox="0 0 22 22" version="1.1" xmlns="http://www.w3.org/2000/svg" xmlns:xlink="http://www.w3.org/1999/xlink">
    <!-- Generator: sketchtool 52.6 (67491) - http://www.bohemiancoding.com/sketch -->
    <title>FBEB5C14-DCE2-4A8F-B75D-0D6135538681</title>
    <desc>Created with sketchtool.</desc>
    <g id="Symbols" stroke="none" stroke-width="1" fill="none" fill-rule="evenodd">
        <g id="footer" transform="translate(-915.000000, -54.000000)" fill="#C7C9CD" fill-rule="nonzero">
            <path d="M926,54 C932.074926,54 937,58.9248491 937,65 C937,71.0751509 932.074926,76 926,76 C919.925074,76 915,71.0751509 915,65 C915,58.9248491 919.925074,54 926,54 Z M927.202046,71.6 L927.202046,65.66 L929.005438,65.66 L929.3,63.02 L927.202046,63.02 L927.202046,61.73432 C927.202046,61.05452 927.219411,60.38 928.169343,60.38 L929.131495,60.38 L929.131495,58.4924 C929.131495,58.46402 928.305048,58.4 927.468953,58.4 C925.722803,58.4 924.629448,59.49362 924.629448,61.502 L924.629448,63.02 L922.7,63.02 L922.7,65.66 L924.629448,65.66 L924.629448,71.6 L927.202046,71.6 Z" id="facebook"/>
        </g>
    </g>
</svg>