<svg width="15" height="15" viewBox="0 0 15 15" xmlns="http://www.w3.org/2000/svg"><title>E99ED1F7-46D5-4D9C-8390-1C86F03E7BFE@3x</title><path d="M7.5 1A6.5 6.5 0 1 0 14 7.5 6.507 6.507 0 0 0 7.5 1zm5.622 8.777l-1.849.32a9.7 9.7 0 0 0 .34-2.38h1.948a6.026 6.026 0 0 1-.44 2.06zM1.439 7.717h1.948a9.7 9.7 0 0 0 .34 2.38l-1.849-.32a6.026 6.026 0 0 1-.44-2.06zm.44-2.494l1.848-.32a9.7 9.7 0 0 0-.34 2.38H1.439a6.026 6.026 0 0 1 .44-2.06zm5.838-.744c.778.01 1.555.08 2.322.212l.765.132a9.3 9.3 0 0 1 .376 2.46H7.717V4.48zm2.396-.215a15.358 15.358 0 0 0-2.396-.219v-2.6c1.242.12 2.32 1.257 2.932 2.912l-.536-.093zm-2.83-.219c-.803.01-1.604.084-2.396.219l-.536.093C4.962 2.7 6.04 1.563 7.283 1.445v2.6zm-2.322.646a14.901 14.901 0 0 1 2.322-.212v2.804H3.82a9.3 9.3 0 0 1 .376-2.46l.765-.132zM3.82 7.717h3.463v2.804c-.778-.01-1.555-.08-2.322-.212l-.765-.132a9.3 9.3 0 0 1-.376-2.46zm1.067 3.02a15.41 15.41 0 0 0 2.396.219v2.6c-1.242-.12-2.32-1.257-2.932-2.912l.536.092zm2.83.219c.803-.01 1.604-.084 2.396-.22l.536-.093c-.611 1.656-1.69 2.794-2.932 2.912v-2.6zm2.322-.647c-.767.131-1.544.202-2.322.212V7.717h3.463a9.3 9.3 0 0 1-.376 2.46l-.765.132zm1.574-3.026a9.7 9.7 0 0 0-.34-2.38l1.849.32c.266.655.415 1.353.44 2.06h-1.949zm1.29-2.538L11.13 4.44a5.975 5.975 0 0 0-1.723-2.698 6.095 6.095 0 0 1 3.495 3.003zm-7.31-3.003A5.975 5.975 0 0 0 3.87 4.44l-1.772.305a6.095 6.095 0 0 1 3.495-3.003zm-3.495 8.513l1.772.305a5.975 5.975 0 0 0 1.723 2.698 6.095 6.095 0 0 1-3.495-3.003zm7.309 3.003a5.975 5.975 0 0 0 1.723-2.698l1.772-.305a6.095 6.095 0 0 1-3.495 3.003z" fill="#B5B8BC" fill-rule="nonzero" stroke="#B5B8BC" stroke-width=".5"/></svg>