<?xml version="1.0" encoding="UTF-8"?>
<svg width="24px" height="24px" viewBox="0 0 24 24" version="1.1" xmlns="http://www.w3.org/2000/svg" xmlns:xlink="http://www.w3.org/1999/xlink">
    <!-- Generator: Sketch 61.2 (89653) - https://sketch.com -->
    <title>icon/furniture</title>
    <desc>Created with Sketch.</desc>
    <g id="icon/furniture" stroke="none" stroke-width="1" fill="none" fill-rule="evenodd">
        <g transform="translate(2.000000, 2.000000)" fill="#999999" fill-rule="nonzero">
            <path d="M4.49320312,17.3044922 L3.87535156,19.4360156 C3.77628906,19.7777734 3.46417969,19.9999609 3.12535156,19.9999609 C3.05332031,19.9999609 2.98015625,19.9899219 2.9075,19.9688672 C2.52762044,19.8587598 2.29547879,19.4854747 2.35194738,19.1048208 L2.37460938,19.0010156 L3.00960938,16.8103125 C2.06707031,16.0037109 0,13.8612109 0,10.5858203 C0,9.29351562 1.05136719,8.24210937 2.34371094,8.24210937 C2.47907552,8.24210937 2.61174913,8.25374132 2.74086372,8.27594039 L2.93175781,8.31703125 L2.52316406,3.77847656 C2.52296875,3.77644531 2.52277344,3.77445312 2.52261719,3.77238281 C2.38816406,2.13546875 3.55535156,0.665234375 5.17972656,0.425273437 C6.49273438,0.23125 8.38800781,-1.42108547e-14 9.96082031,-1.42108547e-14 L10.0389453,-1.42108547e-14 C11.6117578,-1.42108547e-14 13.5070312,0.23125 14.8200391,0.425273437 C16.4444141,0.665234375 17.6116016,2.13546875 17.4771484,3.77238281 C17.4769922,3.77445312 17.4767969,3.77644531 17.4766016,3.77847656 L17.4766016,3.77847656 L17.0680078,8.31703125 L17.2589019,8.27594039 C17.3880165,8.25374132 17.5206901,8.24210937 17.6560547,8.24210937 C18.9483984,8.24210937 19.9997656,9.29351562 19.9997656,10.5858203 C19.9997656,13.8612109 17.9326953,16.0037109 16.9901562,16.8103125 L16.9901562,16.8103125 L17.6251562,19.0010156 L17.6478182,19.1048208 C17.7042868,19.4854747 17.4721452,19.8587598 17.0922656,19.9688672 C17.0196094,19.9899219 16.9464453,19.9999609 16.8744141,19.9999609 C16.5355859,19.9999609 16.2234766,19.7777734 16.1244141,19.4360156 L16.1244141,19.4360156 L15.5065625,17.3044922 L4.49320312,17.3044922 Z M5.68568059,12.6771228 L5.22421875,12.7623828 C4.71890625,12.8585547 4.20199219,12.7257812 3.80589844,12.3979687 C3.46624566,12.1169618 3.25088301,11.7217265 3.19662803,11.2905618 L3.18390625,11.1273437 L3.13042969,10.678125 C3.12679687,10.6474609 3.12496094,10.6166406 3.12496094,10.5857812 C3.12496094,10.155 2.77449219,9.80453125 2.34371094,9.80453125 C1.91292969,9.80453125 1.56246094,10.155 1.56246094,10.5857812 C1.56246094,11.9636719 2.02285156,13.2662109 2.93082031,14.4572266 C3.36946484,15.0325937 3.81415273,15.4445687 4.08616508,15.6727908 L4.17019531,15.7420312 L15.8295703,15.7420312 L15.9136005,15.6727908 C16.1856129,15.4445687 16.6303008,15.0325937 17.0689453,14.4572266 C17.9769141,13.2662109 18.4373047,11.9636719 18.4373047,10.5857812 C18.4373047,10.155 18.0868359,9.80453125 17.6560547,9.80453125 C17.2252734,9.80453125 16.8748047,10.155 16.8748047,10.5857812 C16.8748047,10.6166406 16.8729687,10.6474609 16.8693359,10.678125 L16.8693359,10.678125 L16.8158594,11.1273437 L16.8031376,11.2905618 C16.7488826,11.7217265 16.53352,12.1169618 16.1938672,12.3979687 C15.7977734,12.7257812 15.2808594,12.8585547 14.7755469,12.7623828 L14.7755469,12.7623828 L14.314085,12.6771228 C12.6421802,12.3779188 11.1926562,12.2264062 9.99976562,12.226 L9.99976562,12.226 C8.80710937,12.2264062 7.35758545,12.3779188 5.68568059,12.6771228 Z M10.0008626,10.6639453 L10.3560054,10.6678925 C11.6849609,10.6968273 13.2677148,10.8847201 15.0678906,11.2275391 C15.1281641,11.2389453 15.1717969,11.2157812 15.1977734,11.1942578 C15.2235156,11.1729687 15.2542187,11.1348437 15.2542187,11.0742187 C15.2542187,11.053125 15.2553906,11.0320703 15.2573828,11.0041797 L15.2573828,11.0041797 L15.9201562,3.64183594 L15.9251082,3.4985623 C15.9165109,2.74022383 15.3550965,2.08369485 14.5916406,1.9709375 L14.5916406,1.9709375 L14.2346458,1.91943616 C13.0034598,1.74609375 11.3824822,1.5625 10.0389453,1.5625 L10.0389453,1.5625 L10,1.563 L9.96082031,1.5625 C8.61728338,1.5625 6.99630585,1.74609375 5.76511983,1.91943616 L5.408125,1.9709375 C4.64466912,2.08369485 4.08325476,2.74022383 4.07465741,3.4985623 L4.07960937,3.64183594 L4.74238281,11.0041797 C4.744375,11.0320703 4.74554687,11.053125 4.74554687,11.0742187 C4.74554687,11.1348437 4.77625,11.1729687 4.80199219,11.1942578 C4.82796875,11.2157812 4.87160156,11.2389453 4.931875,11.2275391 C6.73205078,10.8847201 8.31480469,10.6968273 9.64376024,10.6678925 L9.998903,10.6639453 L9.998903,10.6639453 L10.0008626,10.6639453 Z"/>
        </g>
    </g>
</svg>