<svg width="24" height="24" viewBox="0 0 24 24" xmlns="http://www.w3.org/2000/svg"><title>icon/menu/home</title><path d="M11.49 2.95l-7.5 6.955a.75.75 0 0 0-.24.55V20.5c0 .414.336.75.75.75h5l.102-.007a.75.75 0 0 0 .648-.743v-6.05h3.5v6.05c0 .414.336.75.75.75h5a.75.75 0 0 0 .75-.75V10.455a.75.75 0 0 0-.24-.55l-7.5-6.955a.75.75 0 0 0-1.02 0zM12 4.521l6.75 6.26v8.969h-3.5V13.7a.75.75 0 0 0-.75-.75h-5l-.102.007a.75.75 0 0 0-.648.743v6.05h-3.5v-8.969L12 4.521z" fill="#B5B8BC" fill-rule="nonzero"/></svg>