<?xml version="1.0" encoding="UTF-8"?>
<svg width="24px" height="24px" viewBox="0 0 24 24" version="1.1" xmlns="http://www.w3.org/2000/svg" xmlns:xlink="http://www.w3.org/1999/xlink">
    <!-- Generator: Sketch 61.2 (89653) - https://sketch.com -->
    <title>icon/for home-office</title>
    <desc>Created with Sketch.</desc>
    <g id="icon/for-home-office" stroke="none" stroke-width="1" fill="none" fill-rule="evenodd">
        <g transform="translate(2.000000, 2.000000)" fill="#999999" fill-rule="nonzero" stroke="#979797" stroke-width="0.1">
            <path d="M18.4956834,13.4367718 C18.4918388,13.4338981 18.4879941,13.4310631 18.4840718,13.4283058 C17.1127708,12.4517233 14.308732,10.4547913 13.0257805,9.54112136 L13.2228679,9.31382039 C13.2243824,9.31203398 13.2259358,9.31024757 13.2274504,9.30846117 C13.3383242,9.17739321 13.5004213,9.10220874 13.6721106,9.10220874 L15.9443824,9.10220874 C16.4112174,9.10220874 16.8499747,8.92042233 17.1800329,8.59036408 L19.0902077,6.68022816 C20.2257805,5.54465534 20.2257805,3.69688835 19.0902077,2.5612767 C18.980965,2.45203398 18.8328096,2.39063592 18.6783242,2.39063592 C18.5238388,2.39063592 18.3756446,2.45199515 18.2664407,2.56123787 L16.618829,4.20884952 C16.3917223,4.43595631 16.02213,4.43595631 15.7950621,4.20884952 C15.5673727,3.9811602 15.5673727,3.61273301 15.7950621,3.38508253 L17.4426349,1.73747088 C17.67013,1.50997573 17.67013,1.1411602 17.4426349,0.913703885 C16.3044989,-0.224470872 14.4620135,-0.224665047 13.3237223,0.913703885 L11.4135475,2.82391748 C11.0834504,3.15397573 10.8949456,3.59281068 10.8949456,4.0596068 L10.8949456,6.33183981 C10.8949456,6.50356796 10.8264795,6.66562622 10.6954116,6.77653884 C10.6940523,6.77770389 10.6926543,6.77886893 10.6912951,6.78007282 L9.91793584,7.4469466 L6.95727565,4.48628641 L6.17712031,2.14543204 C6.12853778,1.99976214 6.02442128,1.87914078 5.88741157,1.80982039 L2.55343099,0.123451458 C2.32884846,0.00985922485 2.05665429,0.0533155355 1.87859604,0.231296118 L0.230984386,1.87890777 C0.0529649689,2.05688835 0.0094698233,2.32912136 0.123100891,2.55370389 L1.80954749,5.8877233 C1.87882905,6.02473301 1.99948924,6.12884952 2.14515914,6.17743204 L4.48605235,6.95774272 L7.2639941,9.73568447 L1.09339215,15.0568495 C0.534479532,15.5307136 0.175761085,16.1909078 0.0831397262,16.9162282 C-0.0133262932,17.6719175 0.193858173,18.3987913 0.666557202,18.9627913 C1.76484846,20.2733155 3.75350866,20.2613932 4.83991643,18.9813932 L9.4664407,13.6459369 C9.8882271,14.1613155 13.0510621,18.0259757 13.4442271,18.5063641 C14.7655863,20.2552573 17.3314504,20.4343641 18.8827514,18.8830631 C20.437897,17.3279563 20.2532756,14.7549854 18.4956834,13.4367718 Z M5.21261545,6.03669418 C5.14869312,5.97277185 5.07071254,5.92457767 4.98492613,5.89595631 L2.74096497,5.14799515 L1.35319798,2.4043835 L2.40403293,1.35347088 L5.14764458,2.7412767 L5.89560575,4.98523787 C5.92418827,5.07102427 5.97242128,5.14900486 6.03634361,5.21292719 L9.03335332,8.20989806 L8.14869312,8.97277185 L5.21261545,6.03669418 Z M3.95781934,18.2203835 C3.95630477,18.2221699 3.95475138,18.2239563 3.95323681,18.2257427 C3.33304264,18.9587524 2.19327565,18.9706748 1.55948924,18.2144806 C1.02104264,17.5719951 1.15323681,16.5323447 1.84826594,15.9443058 C1.84962516,15.9431408 1.85102322,15.9419369 1.85238244,15.9407718 C7.02558633,11.4868689 10.1700523,8.76799515 11.4502465,7.66403398 C11.84213,7.33137379 12.0600718,6.84601456 12.0600718,6.33183981 L12.0600718,4.0596068 C12.0600718,3.90403398 12.1273727,3.75774272 12.2373922,3.6477233 L14.1475669,1.73754855 C14.6951009,1.19001456 15.5004989,1.09090777 16.1370426,1.39564563 L14.9714116,2.56131554 C14.2900135,3.24267476 14.2900135,4.35133495 14.9714116,5.03269418 C15.652732,5.71401456 16.761431,5.71401456 17.4427514,5.03269418 L18.6078776,3.8676068 C18.9173533,4.51712136 18.8035669,5.31949029 18.2665572,5.8565 L16.3563824,7.76667476 C16.246363,7.87669418 16.1000718,7.94504369 15.9444989,7.94504369 L13.6722271,7.94504369 C13.1584795,7.94504369 12.673431,8.16162622 12.3408096,8.55296602 L3.95781934,18.2203835 Z M18.0589844,18.0592961 C17.0052756,19.1129272 15.2618193,18.9881505 14.3684989,17.7970437 C14.3635669,17.7904806 14.3584795,17.7839951 14.3532756,17.7776262 L10.2445881,12.7555143 L12.2660725,10.4277098 L14.1434116,11.7672573 L17.8020912,14.3728107 C18.9901689,15.2690049 19.109431,17.0088495 18.0589844,18.0592961 Z"/>
        </g>
    </g>
</svg>