<svg width="24" height="24" viewBox="0 0 24 24" fill="none" xmlns="http://www.w3.org/2000/svg">
<path d="M4.2207 10.89V20.89" stroke="#73B222" stroke-width="1.5" stroke-linecap="round" stroke-linejoin="round"/>
<path d="M19.7793 10.89V20.89" stroke="#73B222" stroke-width="1.5" stroke-linecap="round" stroke-linejoin="round"/>
<path d="M14.2213 20.889V16.445C14.2213 15.218 13.2263 14.223 11.9993 14.223C10.7723 14.223 9.77734 15.218 9.77734 16.445V20.889" stroke="#73B222" stroke-width="1.5" stroke-linecap="round" stroke-linejoin="round"/>
<path d="M2 20.89H22" stroke="#73B222" stroke-width="1.5" stroke-linecap="round" stroke-linejoin="round"/>
<path fill-rule="evenodd" clip-rule="evenodd" d="M4.30059 10.889C2.60259 10.877 1.49559 9.196 2.23159 7.747L3.94659 4.37C4.33759 3.6 5.15959 3.111 6.06159 3.111H17.9376C18.8396 3.111 19.6616 3.6 20.0526 4.37L21.7686 7.747C22.5046 9.196 21.3976 10.877 19.6996 10.889C18.2826 10.889 17.1336 9.921 17.1336 8.726V8.678C17.1336 9.899 15.9846 10.889 14.5676 10.889C13.1506 10.889 12.0016 9.899 12.0016 8.678C12.0016 9.899 10.8526 10.889 9.43559 10.889C8.01859 10.889 6.86959 9.899 6.86959 8.678V8.726C6.86659 9.921 5.71759 10.889 4.30059 10.889Z" stroke="#73B222" stroke-width="1.5" stroke-linecap="round" stroke-linejoin="round"/>
</svg>