<?xml version="1.0" encoding="UTF-8"?>
<svg width="24px" height="24px" viewBox="0 0 24 24" version="1.1" xmlns="http://www.w3.org/2000/svg" xmlns:xlink="http://www.w3.org/1999/xlink">
    <!-- Generator: Sketch 61.2 (89653) - https://sketch.com -->
    <title>icon/appliances</title>
    <desc>Created with Sketch.</desc>
    <g id="icon/appliances" stroke="none" stroke-width="1" fill="none" fill-rule="evenodd">
        <g transform="translate(4.000000, 3.000000)" fill="#999999" fill-rule="nonzero">
            <path d="M13.478125,0 C14.6412344,0 15.5875,0.946265625 15.5875,2.109375 L15.5875,2.109375 L15.5875,15.890625 C15.5875,17.0537344 14.6412344,18 13.478125,18 L13.478125,18 L2.509375,18 C1.34626562,18 0.4,17.0537344 0.4,15.890625 L0.4,15.890625 L0.4,2.109375 C0.4,0.946265625 1.34626562,0 2.509375,0 L2.509375,0 Z M14.18125,5.34375 L1.80625,5.34375 L1.80625,15.890625 C1.80625,16.2783281 2.12167187,16.59375 2.509375,16.59375 L2.509375,16.59375 L13.478125,16.59375 C13.8658281,16.59375 14.18125,16.2783281 14.18125,15.890625 L14.18125,15.890625 L14.18125,5.34375 Z M8.02890625,6.57421875 C10.4520508,6.57421875 12.4234375,8.54560547 12.4234375,10.96875 C12.4234375,13.3918945 10.4520508,15.3632812 8.02890625,15.3632812 C5.60576172,15.3632812 3.634375,13.3918945 3.634375,10.96875 C3.634375,8.54560547 5.60576172,6.57421875 8.02890625,6.57421875 Z M6.37469922,10.9354219 C5.95539062,10.912957 5.4923125,11.1080039 5.06161328,11.3170781 C5.23475781,12.8012344 6.49904687,13.9570312 8.02890625,13.9570312 C9.32842187,13.9570312 10.4362656,13.1229492 10.8467852,11.9621953 C10.5912344,12.0258633 10.3216914,12.0587695 10.0434297,12.0587695 C9.97055078,12.0587695 9.89721484,12.0565195 9.82324609,12.0520195 C9.03462109,12.0038906 8.32175781,11.707207 7.85410937,11.4882188 C7.76263281,11.4453984 7.67122656,11.4011367 7.57967969,11.3566992 C7.15418359,11.1504023 6.75224219,10.9555312 6.37469922,10.9354219 Z M8.02890625,7.98046875 C6.83921875,7.98046875 5.80994922,8.67944531 5.32953906,9.68818359 C5.67892187,9.57849609 6.05386328,9.51004687 6.44951172,9.53114062 C7.11044922,9.56633203 7.68567578,9.84526172 8.19322656,10.0913555 C8.27911328,10.1330156 8.36478906,10.1745703 8.4505,10.2147187 C9.02790625,10.4851055 9.49133594,10.622918 9.90888672,10.6484063 C10.3093164,10.6727344 10.684082,10.5834727 10.9624844,10.4013633 C10.6965977,9.02411719 9.48261719,7.98046875 8.02890625,7.98046875 Z M13.478125,1.40625 L2.509375,1.40625 C2.12167187,1.40625 1.80625,1.72167188 1.80625,2.109375 L1.80625,2.109375 L1.80625,3.9375 L14.18125,3.9375 L14.18125,2.109375 C14.18125,1.72167188 13.8658281,1.40625 13.478125,1.40625 L13.478125,1.40625 Z M12.4234375,1.96875 C12.8117627,1.96875 13.1265625,2.28354979 13.1265625,2.671875 C13.1265625,3.06020021 12.8117627,3.375 12.4234375,3.375 C12.0351123,3.375 11.7203125,3.06020021 11.7203125,2.671875 C11.7203125,2.28354979 12.0351123,1.96875 12.4234375,1.96875 Z M9.92734375,1.96875 C10.315669,1.96875 10.6304687,2.28354979 10.6304687,2.671875 C10.6304687,3.06020021 10.315669,3.375 9.92734375,3.375 C9.53901854,3.375 9.22421875,3.06020021 9.22421875,2.671875 C9.22421875,2.28354979 9.53901854,1.96875 9.92734375,1.96875 Z"/>
        </g>
    </g>
</svg>