<?xml version="1.0" encoding="UTF-8"?>
<svg width="24px" height="24px" viewBox="0 0 24 24" version="1.1" xmlns="http://www.w3.org/2000/svg" xmlns:xlink="http://www.w3.org/1999/xlink">
    <!-- Generator: Sketch 61.2 (89653) - https://sketch.com -->
    <title>icon/work</title>
    <desc>Created with Sketch.</desc>
    <g id="icon/work" stroke="none" stroke-width="1" fill="none" fill-rule="evenodd">
        <g transform="translate(2.000000, 3.000000)" fill="#999999" fill-rule="nonzero">
            <path d="M12,0.25 C12.9181734,0.25 13.6711923,0.957110273 13.7441988,1.85647279 L13.75,2 L13.75,3.25 L18,3.25 C18.9181734,3.25 19.6711923,3.95711027 19.7441988,4.85647279 L19.75,5 L19.75,16 C19.75,16.9664983 18.9664983,17.75 18,17.75 L18,17.75 L2,17.75 C1.03350169,17.75 0.25,16.9664983 0.25,16 L0.25,16 L0.25,5 C0.25,4.03350169 1.03350169,3.25 2,3.25 L2,3.25 L6.25,3.249 L6.25,2 C6.25,1.0818266 6.95711027,0.32880766 7.85647279,0.2558012 L8,0.25 L12,0.25 Z M12.25,4.75 L7.75,4.749 L7.75,4.75 L6.25,4.75 L6.25,4.749 L2,4.75 C1.88165327,4.75 1.78251318,4.83223341 1.75660268,4.94267729 L1.75,5 L1.75,16 C1.75,16.1380712 1.86192881,16.25 2,16.25 L2,16.25 L18,16.25 C18.1380712,16.25 18.25,16.1380712 18.25,16 L18.25,16 L18.25,5 C18.25,4.86192881 18.1380712,4.75 18,4.75 L18,4.75 L12.25,4.75 Z M12,1.75 L8,1.75 C7.88165327,1.75 7.78251318,1.83223341 7.75660268,1.94267729 L7.75,2 L7.75,3.249 L12.25,3.25 L12.25,2 C12.25,1.88165327 12.1677666,1.78251318 12.0573227,1.75660268 L12,1.75 Z"/>
        </g>
    </g>
</svg>