<svg width="12" height="12" viewBox="0 0 12 12" xmlns="http://www.w3.org/2000/svg"><title>0E66AE38-1596-4606-95D9-81B40A149206@3x</title><g fill="#B5B8BC" fill-rule="nonzero"><path d="M10.772 5H6.48c-.677 0-1.228.571-1.228 1.274v2.419l-1.112.824a.35.35 0 0 0-.14.281.35.35 0 0 0 .14.282l1.125.834c.088.614.6 1.086 1.215 1.086h4.292c.677 0 1.228-.571 1.228-1.274V6.274C12 5.57 11.45 5 10.772 5zM9.329 9.867c-.079 0-.14-.026-.158-.096l-.136-.494h-.819l-.136.494c-.017.07-.078.096-.157.096-.125 0-.293-.081-.293-.2 0-.008.003-.022.007-.037l.69-2.334c.032-.111.165-.163.297-.163.136 0 .268.052.3.163l.691 2.334c.004.015.007.026.007.037 0 .115-.168.2-.293.2z"/><path d="M8.256 8.984h.752L8.626 8zM3.982 6.097c0-.465.157-.893.418-1.23-.381 0-.735-.123-1.026-.333-.291.21-.645.333-1.026.333a.192.192 0 0 1-.188-.195c0-.108.084-.195.188-.195.267 0 .517-.077.73-.21a1.895 1.895 0 0 1-.47-1.074h-.26a.192.192 0 0 1-.188-.195c0-.108.084-.196.188-.196h.838v-.474c0-.108.084-.195.188-.195s.188.087.188.195v.474H4.4c.104 0 .188.088.188.196a.192.192 0 0 1-.188.195h-.26a1.895 1.895 0 0 1-.47 1.074c.213.133.463.21.73.21.1 0 .18.08.188.18a1.852 1.852 0 0 1 1.29-.527h.87v-.823l1.112-.824A.35.35 0 0 0 8 2.202a.35.35 0 0 0-.14-.282l-1.125-.834C6.647.472 6.135 0 5.52 0H1.228C.551 0 0 .571 0 1.274v4.452C0 6.43.55 7 1.228 7h2.754v-.903z"/><path d="M3.368 3.995c.266-.267.289-.454.341-.84h-.683c.053.386.076.573.342.84z"/></g></svg>