<svg width="24" height="24" viewBox="0 0 24 24" fill="none" xmlns="http://www.w3.org/2000/svg"><path fill-rule="evenodd" clip-rule="evenodd" d="M7.409 14.246L5.874 7H18.5a1 1 0 0 1 .97 1.243l-1.348 5.392a2 2 0 0 1-1.741 1.505l-6.816.682a2 2 0 0 1-2.156-1.576z" stroke="#B5B8BC" stroke-width="1.5" stroke-linecap="round" stroke-linejoin="round"/><path d="M5.874 7l-.65-3H3.5M17.109 19.267a.366.366 0 1 0 .368.366.368.368 0 0 0-.368-.366M8.697 19.267a.363.363 0 0 0-.364.366.366.366 0 1 0 .364-.366" stroke="#B5B8BC" stroke-width="1.5" stroke-linecap="round" stroke-linejoin="round"/></svg>