<?xml version="1.0" encoding="UTF-8"?>
<svg width="24px" height="24px" viewBox="0 0 24 24" version="1.1" xmlns="http://www.w3.org/2000/svg" xmlns:xlink="http://www.w3.org/1999/xlink">
    <!-- Generator: Sketch 61.2 (89653) - https://sketch.com -->
    <title>icon/musical instruments copy</title>
    <desc>Created with Sketch.</desc>
    <g id="icon/musical-instruments-copy" stroke="none" stroke-width="1" fill="none" fill-rule="evenodd">
        <g transform="translate(2.000000, 2.000000)" fill="#999999" fill-rule="nonzero" stroke="#999999" stroke-width="0.3">
            <path d="M16.1376487,0.337397429 C16.5877125,-0.112265224 17.3197681,-0.11266635 17.7698319,0.337397429 L17.7698319,0.337397429 L19.6627472,2.23031273 C20.1124099,2.68037651 20.1124099,3.41243213 19.6627472,3.86249591 C18.2357435,5.2894996 18.6331988,4.89197697 17.4453262,6.08020908 L17.0794934,6.44615081 C16.7179583,6.8070442 16.1753546,6.87828424 15.7437427,6.66035229 L15.7437427,6.66035229 L12.5636129,9.84048209 C13.4389508,11.8779633 12.5660998,13.9977958 10.6261725,14.5456943 C10.3971294,14.6102757 10.2102045,14.8513526 10.2342721,15.0515147 C10.4039485,16.4803268 9.96752303,17.8337271 9.03610762,18.7647414 C7.14503749,20.6567742 3.90064725,20.3020582 1.79978803,18.2003566 C-0.317437136,16.0839738 -0.644756248,12.8433542 1.23540324,10.964037 C2.16641753,10.0326216 3.51981788,9.59579501 4.94822885,9.76587259 C5.14879204,9.78953904 5.38986898,9.60301528 5.45445032,9.37437326 C5.99705396,7.45181471 8.10794133,6.54478778 10.1616682,7.43452617 L10.1616682,7.43452617 L13.3397924,4.25640199 C13.1219807,3.82398777 13.1933812,3.28206606 13.5535927,2.92105233 L13.5535927,2.92105233 Z M9.21701561,8.37917875 C8.0050123,8.07388148 6.91852144,8.61841051 6.61250213,9.70089012 C6.39172218,10.4851323 5.612454,11.054852 4.805829,10.960828 C3.78592511,10.8387653 2.7973893,11.1041104 2.08619226,11.814826 C0.704793287,13.196225 0.985300953,15.6850938 2.65057705,17.3495676 C4.31272436,19.0125172 6.80203434,19.2972367 8.1853186,17.9139524 C8.86362328,17.2352466 9.16727594,16.2693343 9.03931663,15.1939145 C8.94545306,14.4069046 9.49860631,13.6130755 10.2992545,13.3872414 C10.6241669,13.2957846 10.9053565,13.1329273 11.1352019,12.9030819 C11.6682988,12.3699849 11.8203257,11.5749525 11.6205648,10.7835302 L11.6205648,10.7835302 L10.8283402,11.5757547 C10.4353567,11.9687382 9.79552005,11.9689388 9.40233599,11.5757547 L9.40233599,11.5757547 L8.42438991,10.5978087 C8.02968157,10.2039427 8.03124597,9.56494839 8.42438991,9.17180444 L8.42438991,9.17180444 Z M3.99893507,13.2559008 C4.75762547,12.4972104 5.98599473,12.4976516 6.7442439,13.2559008 C7.5029343,14.0145912 7.50245295,15.2430005 6.7442439,16.0012096 C5.98406933,16.7597395 4.75481759,16.7562497 3.99893507,16.0012096 C3.24241075,15.2442841 3.24241075,14.0128262 3.99893507,13.2559008 Z M5.89345488,14.1070909 C5.60460379,13.8181997 5.13773281,13.8190822 4.85012521,14.1066898 C4.56251761,14.3946985 4.56251761,14.8624118 4.85012521,15.1500194 C5.13773281,15.437627 5.60544615,15.437627 5.89345488,15.1500194 C6.17749246,14.8675864 6.18515397,14.3988301 5.89345488,14.1070909 Z M14.1496665,5.14850702 C14.0173349,5.28083861 9.53414611,9.76402741 9.4131664,9.88500712 L9.4131664,9.88500712 L10.1151375,10.5869783 C10.2608089,10.4413069 13.8964302,6.80568557 14.7027601,5.9993557 L14.8516376,5.85047816 Z M16.9535398,1.22348556 C14.8448987,3.33164528 15.4488747,2.72774954 14.4396809,3.73694335 L14.4396809,3.73694335 L16.2632013,5.5604638 C16.7898688,5.03379635 16.972098,4.8515278 17.0493206,4.77436886 L18.7770602,3.04660488 Z" transform="translate(9.999997, 9.999968) rotate(-360.000000) translate(-9.999997, -9.999968) "/>
        </g>
    </g>
</svg>