<svg width="30" height="16" viewBox="0 0 30 16" fill="none" xmlns="http://www.w3.org/2000/svg">
<path d="M26 0H4C1.79086 0 0 1.79086 0 4V12C0 14.2091 1.79086 16 4 16H26C28.2091 16 30 14.2091 30 12V4C30 1.79086 28.2091 0 26 0Z" fill="#73B222"/>
<path d="M6.5 5.00598H7.481L10.145 9.15498L10.361 9.52398V9.46998C10.337 9.24798 10.325 9.02598 10.325 8.80398L10.307 5.00598H11.243V11H10.244L7.4 6.62598C7.388 6.59598 7.376 6.57198 7.364 6.55398L7.4 6.99498L7.427 11H6.5V5.00598ZM15.6075 8.43498C15.5595 7.67298 15.2115 7.29198 14.5635 7.29198C13.9455 7.29198 13.5915 7.67298 13.5015 8.43498H15.6075ZM13.4835 9.08298C13.5135 9.94698 13.8915 10.379 14.6175 10.379C15.0795 10.379 15.3975 10.124 15.5715 9.61398L16.5165 9.74898C16.2525 10.643 15.6135 11.09 14.5995 11.09C13.9515 11.09 13.4445 10.892 13.0785 10.496C12.7065 10.106 12.5205 9.55998 12.5205 8.85798C12.5205 8.16198 12.7035 7.60398 13.0695 7.18398C13.4355 6.76998 13.9215 6.56298 14.5275 6.56298C15.1635 6.56298 15.6615 6.76998 16.0215 7.18398C16.3815 7.60398 16.5615 8.17998 16.5615 8.91198C16.5555 8.92998 16.5525 8.95398 16.5525 8.98398V9.08298H13.4835ZM18.4936 11L17.1436 6.66198H18.0706L18.9526 9.82098L19.7986 6.66198H20.7166L21.5176 9.82098C21.5536 9.67098 21.5986 9.50598 21.6526 9.32598L22.4356 6.66198H23.3446L21.9676 11H21.0496L20.2216 7.90398L20.1226 8.32698L19.4296 11H18.4936Z" fill="white"/>
</svg>