<?xml version="1.0" encoding="UTF-8"?>
<svg width="24px" height="24px" viewBox="0 0 24 24" version="1.1" xmlns="http://www.w3.org/2000/svg" xmlns:xlink="http://www.w3.org/1999/xlink">
    <!-- Generator: Sketch 61.2 (89653) - https://sketch.com -->
    <title>icon/pets-plants</title>
    <desc>Created with Sketch.</desc>
    <g id="icon/pets-plants" stroke="none" stroke-width="1" fill="none" fill-rule="evenodd">
        <g transform="translate(0.000000, 2.000000)" fill="#999999" fill-rule="nonzero">
            <path d="M11.8413394,7.84967563 L11.9428097,7.85185782 C12.3930677,7.83506177 12.9154466,7.91314176 13.4482732,8.15859268 L13.6484525,8.25862388 L13.8488797,8.37519449 C14.6525926,8.87725917 15.2373919,9.70533054 15.5171577,10.8784284 L15.5724073,11.1350945 C15.7565859,12.0935674 16.0756449,12.6551891 16.7133755,13.3029796 L17.2060306,13.7760562 C18.0332756,14.5601598 18.4289728,15.125762 18.6343522,16.0771286 C18.9134813,17.3647728 18.4161597,18.3751601 17.4003355,18.9225115 C16.708769,19.2951448 15.8066965,19.4189347 15.092327,19.2862073 L14.8840454,19.2386859 C14.6119858,19.1642436 14.208566,19.0997904 13.7168668,19.0486801 C13.4590048,19.0218763 13.1875641,18.9997154 12.9114749,18.9817869 L11.9726579,18.9365623 L11.4184754,18.9579833 C11.0002583,18.9786438 10.5824522,19.0083429 10.1952197,19.0484626 C9.83941267,19.0853264 9.52922136,19.1291525 9.287244,19.1774424 L9.15042405,19.206932 L9.02546177,19.2383595 C8.28540836,19.4422581 7.26879698,19.333654 6.50688257,18.9232832 C5.49048733,18.3758479 4.99200158,17.3653656 5.26998229,16.0777125 C5.45975963,15.1986322 5.81225101,14.6487493 6.51711181,13.9528715 L7.03030302,13.4642964 C7.72271724,12.7997461 8.08178082,12.2604056 8.29070826,11.3659394 L8.33991831,11.1346464 C8.61960084,9.68426951 9.33637565,8.72748878 10.3321218,8.225062 C10.8844201,7.94638714 11.4148143,7.8487752 11.8413394,7.84967563 Z M11.9109641,9.25201778 C11.8560134,9.24866375 11.7531201,9.25154378 11.6185734,9.27066264 C11.3992173,9.30183278 11.1760509,9.36735934 10.9627895,9.47496532 C10.3993947,9.75923921 9.97675163,10.2899886 9.76067483,11.18669 L9.71450777,11.4001716 C9.46976256,12.6650084 9.00898108,13.4589339 8.18248018,14.2944891 L7.66282282,14.7926742 C7.02066015,15.4000837 6.77186252,15.7551826 6.63845661,16.3731411 C6.49530625,17.0362374 6.6905753,17.4320681 7.1707592,17.6906974 C7.56350799,17.9022338 8.11713379,17.9802195 8.52320632,17.9157331 L8.66796455,17.8848549 L8.81924485,17.8467227 C9.15510381,17.7680666 9.57013772,17.705731 10.0509433,17.6559166 C10.3276964,17.6272432 10.6163332,17.6037257 10.9088093,17.5847715 L11.6394336,17.5467955 C11.7707357,17.5416931 11.8816071,17.5385236 11.9726905,17.536911 L12.5642504,17.5597323 C13.0053305,17.581586 13.446823,17.613067 13.8616116,17.6561827 C14.4228441,17.7145207 14.8926805,17.7895852 15.2535379,17.8883247 C15.6500355,17.9968163 16.2951885,17.9276931 16.7362485,17.6900389 C17.2154263,17.431846 17.4098695,17.0368041 17.2660037,16.373139 C17.1446856,15.811165 16.928401,15.4666879 16.4082882,14.9520348 L15.9091957,14.4761628 C15.0300445,13.6308157 14.5280413,12.8649333 14.253135,11.663941 L14.1976478,11.3997382 C14.0176805,10.466517 13.632931,9.89100579 13.1071531,9.56256201 C12.763257,9.34773647 12.4061745,9.26173728 12.1217163,9.25151148 L11.9109641,9.25201778 Z M17.3058355,7.95350079 C18.5927015,6.35095805 20.7189644,5.86870806 22.0784949,6.99508469 C23.4302171,8.11491972 23.3923635,10.3064919 22.1098194,11.9036759 C20.8236465,13.505379 18.6983878,13.986714 17.3378969,12.8627471 C16.0332027,11.7849261 16.0220325,9.70643191 17.1731508,8.1268844 L17.3058355,7.95350079 Z M1.90756053,6.9884034 C3.26710816,5.86201259 5.39337106,6.34426257 6.68023706,7.94680532 C7.96309313,9.54440124 8.00119188,11.7383113 6.6481879,12.8560415 C5.28768475,13.9800186 3.16242603,13.4986835 1.87625315,11.8969804 C0.593709074,10.2997964 0.555855432,8.10822424 1.90756053,6.9884034 Z M21.1853301,8.07316471 C20.4941308,7.50050329 19.2359658,7.78586313 18.3974445,8.83007927 C17.5542553,9.88013907 17.5312218,11.2065204 18.2295579,11.7834229 C18.9221635,12.3556177 20.1801989,12.0706941 21.0182042,11.0271052 C21.8613206,9.97715141 21.8842065,8.6521493 21.1853301,8.07316471 Z M5.58862808,8.8233838 C4.75010677,7.77916766 3.49194176,7.49380781 2.80072539,8.06648341 C2.10186605,8.64545383 2.12475197,9.97045594 2.9678684,11.0204098 C3.8058737,12.0639986 5.06390903,12.3489223 5.75652686,11.7767174 C6.42159725,11.227296 6.43237519,9.99806611 5.70350964,8.97515457 L5.58862808,8.8233838 Z M7.33902404,0.754222208 C9.04136177,0.268594864 10.8342898,1.53083547 11.4065182,3.48599966 C11.979767,5.4446501 11.1417067,7.46151305 9.43327418,7.9481451 C7.72953199,8.43339897 5.93847639,7.17194864 5.36606184,5.21628341 C4.81219273,3.32381089 5.57779723,1.37553879 7.17126096,0.807951005 L7.33902404,0.754222208 Z M12.3662306,3.48737498 C12.93844,1.53055802 14.7292359,0.268860889 16.4332961,0.754096578 C18.1416776,1.24053267 18.9797845,3.25694346 18.4065714,5.21491169 C17.8343692,7.17170413 16.0435553,8.43339269 14.3395059,7.94819009 C12.6880704,7.47796853 11.8498583,5.57807062 12.3136493,3.68311736 L12.3662306,3.48737498 Z M10.0628831,3.87924859 C9.69014297,2.60568699 8.61227099,1.84685351 7.72308166,2.10051332 C6.83731488,2.35318115 6.33812177,3.55342801 6.70969434,4.82302559 C7.0826664,6.09729176 8.15904325,6.8553899 9.04976693,6.60169711 C9.9363911,6.34914998 10.4347467,5.14981513 10.0628831,3.87924859 Z M16.0498948,2.10057472 C15.1589499,1.84687582 14.0828762,2.60501867 13.7099587,3.88030588 C13.3380974,5.15050174 13.8363616,6.34928132 14.7228963,6.60170883 C15.6138362,6.85539066 16.6899326,6.09724459 17.062905,4.82176998 C17.4347047,3.55178493 16.9364404,2.35300535 16.0498948,2.10057472 Z"/>
        </g>
    </g>
</svg>