<svg width="24" height="24" viewBox="0 0 24 24" xmlns="http://www.w3.org/2000/svg"><title>icon/menu/phone</title><path d="M4.746 2.72l-.955.962a5.758 5.758 0 0 0-1.414 5.844 16.649 16.649 0 0 0 2.011 4.107 20.825 20.825 0 0 0 2.617 3.2 20.587 20.587 0 0 0 3.507 2.85 15.607 15.607 0 0 0 4.545 2.05 5.694 5.694 0 0 0 5.246-1.369l.992-.984a2.093 2.093 0 0 0-.005-2.947l-3.026-3.057a2.08 2.08 0 0 0-2.957.003l-1.72 1.763c-.008.007-.034.01-.054-.005a19.264 19.264 0 0 1-2.605-2.208 19.499 19.499 0 0 1-1.986-2.336.068.068 0 0 1 .004-.086l1.778-1.793a2.094 2.094 0 0 0 0-2.952L7.7 2.712a2.079 2.079 0 0 0-2.954.007zm1.962.98l3.024 3.05c.24.242.266.619.074.888l-.074.088-1.774 1.79a1.468 1.468 0 0 0-.15 1.897 20.88 20.88 0 0 0 2.123 2.5c.861.871 1.797 1.664 2.797 2.37.577.406 1.36.337 1.86-.163l1.715-1.757a.679.679 0 0 1 .966-.002l3.03 3.06c.24.241.265.619.074.888l-.074.088-.817.813a4.278 4.278 0 0 1-4.06 1.171 14.237 14.237 0 0 1-4.152-1.876 19.21 19.21 0 0 1-3.274-2.662 19.455 19.455 0 0 1-2.447-2.993 15.232 15.232 0 0 1-1.84-3.752 4.363 4.363 0 0 1 1.076-4.43l.957-.965a.679.679 0 0 1 .966-.002z" fill="#B5B8BC" fill-rule="nonzero"/></svg>