<?xml version="1.0" encoding="UTF-8"?>
<svg width="24px" height="24px" viewBox="0 0 24 24" version="1.1" xmlns="http://www.w3.org/2000/svg" xmlns:xlink="http://www.w3.org/1999/xlink">
    <!-- Generator: Sketch 61.2 (89653) - https://sketch.com -->
    <title>icon/phone</title>
    <desc>Created with Sketch.</desc>
    <g id="icon/phone" stroke="none" stroke-width="1" fill="none" fill-rule="evenodd">
        <g transform="translate(5.000000, 2.000000)" fill="#999999" fill-rule="nonzero">
            <path d="M11.5,0.25 C12.4664983,0.25 13.25,1.03350169 13.25,2 L13.25,2 L13.25,18 C13.25,18.9664983 12.4664983,19.75 11.5,19.75 L11.5,19.75 L2.5,19.75 C1.53350169,19.75 0.75,18.9664983 0.75,18 L0.75,18 L0.75,2 C0.75,1.03350169 1.53350169,0.25 2.5,0.25 L2.5,0.25 Z M11.5,1.75 L9.002,1.75 L9.0027628,1.75998695 C9.0027628,2.3122717 8.55504755,2.75998695 8.0027628,2.75998695 L6.0027628,2.75998695 C5.45047805,2.75998695 5.0027628,2.3122717 5.0027628,1.75998695 L5.002,1.75 L2.5,1.75 C2.38165327,1.75 2.28251318,1.83223341 2.25660268,1.94267729 L2.25,2 L2.25,18 C2.25,18.1380712 2.36192881,18.25 2.5,18.25 L2.5,18.25 L11.5,18.25 C11.6380712,18.25 11.75,18.1380712 11.75,18 L11.75,18 L11.75,2 C11.75,1.86192881 11.6380712,1.75 11.5,1.75 L11.5,1.75 Z M7,14.759987 C7.55228475,14.759987 8,15.2077022 8,15.759987 C8,16.3122717 7.55228475,16.759987 7,16.759987 C6.44771525,16.759987 6,16.3122717 6,15.759987 C6,15.2077022 6.44771525,14.759987 7,14.759987 Z"/>
        </g>
    </g>
</svg>