<?xml version="1.0" encoding="UTF-8"?>
<svg width="24px" height="24px" viewBox="0 0 24 24" version="1.1" xmlns="http://www.w3.org/2000/svg" xmlns:xlink="http://www.w3.org/1999/xlink">
    <!-- Generator: Sketch 61.2 (89653) - https://sketch.com -->
    <title>icon/realty</title>
    <desc>Created with Sketch.</desc>
    <g id="icon/realty" stroke="none" stroke-width="1" fill="none" fill-rule="evenodd">
        <g transform="translate(1.000000, 2.000000)" fill="#999999" fill-rule="nonzero">
            <path d="M10,0 C10.9664983,0 11.75,0.783501688 11.75,1.75 L11.75,1.75 L11.75,6 L19.5,6 C20.4181734,6 21.1711923,6.70711027 21.2441988,7.60647279 L21.25,7.75 L21.25,18.25 C21.25,19.1681734 20.5428897,19.9211923 19.6435272,19.9941988 L19.5,20 L2.5,20 C1.53350169,20 0.75,19.2164983 0.75,18.25 L0.75,18.25 L0.75,1.75 C0.75,0.783501688 1.53350169,0 2.5,0 L2.5,0 Z M19.5,7.5 L11.75,7.5 L11.75,18.5 L19.5,18.5 C19.6183467,18.5 19.7174868,18.4177666 19.7433973,18.3073227 L19.75,18.25 L19.75,7.75 C19.75,7.63165327 19.6677666,7.53251318 19.5573227,7.50660268 L19.5,7.5 Z M10,1.5 L2.5,1.5 C2.36192881,1.5 2.25,1.61192881 2.25,1.75 L2.25,1.75 L2.25,18.25 C2.25,18.3880712 2.36192881,18.5 2.5,18.5 L2.5,18.5 L10.25,18.5 L10.25,1.75 C10.25,1.63165327 10.1677666,1.53251318 10.0573227,1.50660268 L10.0573227,1.50660268 L10,1.5 Z M5.3,15.25 C5.41045695,15.25 5.5,15.3395431 5.5,15.45 L5.5,16.55 C5.5,16.6604569 5.41045695,16.75 5.3,16.75 L4.2,16.75 C4.08954305,16.75 4,16.6604569 4,16.55 L4,15.45 C4,15.3395431 4.08954305,15.25 4.2,15.25 L5.3,15.25 Z M14.8,15.25 C14.9104569,15.25 15,15.3395431 15,15.45 L15,16.55 C15,16.6604569 14.9104569,16.75 14.8,16.75 L13.7,16.75 C13.5895431,16.75 13.5,16.6604569 13.5,16.55 L13.5,15.45 C13.5,15.3395431 13.5895431,15.25 13.7,15.25 L14.8,15.25 Z M8.3,15.25 C8.41045695,15.25 8.5,15.3395431 8.5,15.45 L8.5,16.55 C8.5,16.6604569 8.41045695,16.75 8.3,16.75 L7.2,16.75 C7.08954305,16.75 7,16.6604569 7,16.55 L7,15.45 C7,15.3395431 7.08954305,15.25 7.2,15.25 L8.3,15.25 Z M17.8,15.25 C17.9104569,15.25 18,15.3395431 18,15.45 L18,16.55 C18,16.6604569 17.9104569,16.75 17.8,16.75 L16.7,16.75 C16.5895431,16.75 16.5,16.6604569 16.5,16.55 L16.5,15.45 C16.5,15.3395431 16.5895431,15.25 16.7,15.25 L17.8,15.25 Z M5.3,12.25 C5.41045695,12.25 5.5,12.3395431 5.5,12.45 L5.5,13.55 C5.5,13.6604569 5.41045695,13.75 5.3,13.75 L4.2,13.75 C4.08954305,13.75 4,13.6604569 4,13.55 L4,12.45 C4,12.3395431 4.08954305,12.25 4.2,12.25 L5.3,12.25 Z M14.8,12.25 C14.9104569,12.25 15,12.3395431 15,12.45 L15,13.55 C15,13.6604569 14.9104569,13.75 14.8,13.75 L13.7,13.75 C13.5895431,13.75 13.5,13.6604569 13.5,13.55 L13.5,12.45 C13.5,12.3395431 13.5895431,12.25 13.7,12.25 L14.8,12.25 Z M8.3,12.25 C8.41045695,12.25 8.5,12.3395431 8.5,12.45 L8.5,13.55 C8.5,13.6604569 8.41045695,13.75 8.3,13.75 L7.2,13.75 C7.08954305,13.75 7,13.6604569 7,13.55 L7,12.45 C7,12.3395431 7.08954305,12.25 7.2,12.25 L8.3,12.25 Z M17.8,12.25 C17.9104569,12.25 18,12.3395431 18,12.45 L18,13.55 C18,13.6604569 17.9104569,13.75 17.8,13.75 L16.7,13.75 C16.5895431,13.75 16.5,13.6604569 16.5,13.55 L16.5,12.45 C16.5,12.3395431 16.5895431,12.25 16.7,12.25 L17.8,12.25 Z M5.3,9.25 C5.41045695,9.25 5.5,9.33954305 5.5,9.45 L5.5,10.55 C5.5,10.6604569 5.41045695,10.75 5.3,10.75 L4.2,10.75 C4.08954305,10.75 4,10.6604569 4,10.55 L4,9.45 C4,9.33954305 4.08954305,9.25 4.2,9.25 L5.3,9.25 Z M14.8,9.25 C14.9104569,9.25 15,9.33954305 15,9.45 L15,10.55 C15,10.6604569 14.9104569,10.75 14.8,10.75 L13.7,10.75 C13.5895431,10.75 13.5,10.6604569 13.5,10.55 L13.5,9.45 C13.5,9.33954305 13.5895431,9.25 13.7,9.25 L14.8,9.25 Z M8.3,9.25 C8.41045695,9.25 8.5,9.33954305 8.5,9.45 L8.5,10.55 C8.5,10.6604569 8.41045695,10.75 8.3,10.75 L7.2,10.75 C7.08954305,10.75 7,10.6604569 7,10.55 L7,9.45 C7,9.33954305 7.08954305,9.25 7.2,9.25 L8.3,9.25 Z M17.8,9.25 C17.9104569,9.25 18,9.33954305 18,9.45 L18,10.55 C18,10.6604569 17.9104569,10.75 17.8,10.75 L16.7,10.75 C16.5895431,10.75 16.5,10.6604569 16.5,10.55 L16.5,9.45 C16.5,9.33954305 16.5895431,9.25 16.7,9.25 L17.8,9.25 Z M5.3,6.25 C5.41045695,6.25 5.5,6.33954305 5.5,6.45 L5.5,7.55 C5.5,7.66045695 5.41045695,7.75 5.3,7.75 L4.2,7.75 C4.08954305,7.75 4,7.66045695 4,7.55 L4,6.45 C4,6.33954305 4.08954305,6.25 4.2,6.25 L5.3,6.25 Z M8.3,6.25 C8.41045695,6.25 8.5,6.33954305 8.5,6.45 L8.5,7.55 C8.5,7.66045695 8.41045695,7.75 8.3,7.75 L7.2,7.75 C7.08954305,7.75 7,7.66045695 7,7.55 L7,6.45 C7,6.33954305 7.08954305,6.25 7.2,6.25 L8.3,6.25 Z M5.3,3.25 C5.41045695,3.25 5.5,3.33954305 5.5,3.45 L5.5,4.55 C5.5,4.66045695 5.41045695,4.75 5.3,4.75 L4.2,4.75 C4.08954305,4.75 4,4.66045695 4,4.55 L4,3.45 C4,3.33954305 4.08954305,3.25 4.2,3.25 L5.3,3.25 Z M8.3,3.25 C8.41045695,3.25 8.5,3.33954305 8.5,3.45 L8.5,4.55 C8.5,4.66045695 8.41045695,4.75 8.3,4.75 L7.2,4.75 C7.08954305,4.75 7,4.66045695 7,4.55 L7,3.45 C7,3.33954305 7.08954305,3.25 7.2,3.25 L8.3,3.25 Z"/>
        </g>
    </g>
</svg>