<?xml version="1.0" encoding="UTF-8"?>
<svg width="15px" height="16px" viewBox="0 0 15 16" version="1.1" xmlns="http://www.w3.org/2000/svg" xmlns:xlink="http://www.w3.org/1999/xlink">
    <g id="Index" stroke="none" stroke-width="1" fill="none" fill-rule="evenodd">
        <g id="V3.1.2" transform="translate(-839.000000, -199.000000)" fill="#999999">
            <g id="header-/-personal-cab" transform="translate(0.000000, 144.000000)">
                <g id="search" transform="translate(212.000000, 48.000000)">
                    <path d="M628.088067,13.2217852 C628.088067,10.4158731 630.291563,8.12606608 633.011829,8.12606608 C635.723055,8.12606608 637.935432,10.4065165 637.935432,13.2217852 C637.935432,16.0370539 635.732096,18.3173387 633.011829,18.3173387 C630.291563,18.3173387 628.088067,16.0276559 628.088067,13.2217852 L628.088067,13.2217852 Z M637.418661,17.4446883 C638.406918,16.3373768 639.023538,14.8545169 639.023538,13.2217852 C639.023538,9.79647263 636.330434,7 633.011829,7 C629.693064,7 627,9.79647263 627,13.2217852 C627,16.6468908 629.693064,19.4434048 633.011829,19.4434048 C634.362922,19.4434048 635.605043,18.9836466 636.611582,18.2047694 L641.08186,22.8311667 C641.190751,22.943736 641.326724,23 641.462657,23 C641.598791,23 641.743805,22.943736 641.843655,22.8311667 C642.052115,22.6152604 642.052115,22.2586735 641.843655,22.0335762 L637.418661,17.4446883 Z" id="icon/search_new"/>
                </g>
            </g>
        </g>
    </g>
</svg>