<?xml version="1.0" encoding="UTF-8"?>
<svg width="24px" height="24px" viewBox="0 0 24 24" version="1.1" xmlns="http://www.w3.org/2000/svg" xmlns:xlink="http://www.w3.org/1999/xlink">
    <!-- Generator: Sketch 61.2 (89653) - https://sketch.com -->
    <title>icon/services</title>
    <desc>Created with Sketch.</desc>
    <g id="icon/services" stroke="none" stroke-width="1" fill="none" fill-rule="evenodd">
        <g transform="translate(2.000000, 2.000000)" fill="#999999" fill-rule="nonzero" stroke="#999999" stroke-width="0.1">
            <path d="M4.36046875,10.2366406 C5.90023437,8.88164062 8.22,8.87734375 9.76445312,10.22375 C10.1695312,10.5358203 10.2476172,10.6248828 10.4808203,10.6248828 L10.4808203,10.6248828 L13.5540625,10.6248828 C14.341875,10.6248828 15.0101953,11.1459375 15.2328516,11.8615234 L15.2328516,11.8615234 L16.955,10.0128125 C17.6487109,9.26832031 18.7056641,9.31558594 19.374375,9.86671875 C20.1071484,10.4717578 20.1934766,11.5377344 19.6478125,12.2646875 L19.6478125,12.2646875 L16.8350781,16.0152344 C16.0648047,17.0425 14.8379297,17.6557422 13.5540234,17.6557422 L13.5540234,17.6557422 L6.63023437,17.6557422 C6.65328125,18.3189453 6.29785156,18.9705078 5.65921875,19.2896094 L5.65921875,19.2896094 L4.36359375,19.9376172 C4.07414062,20.0821094 3.72222656,19.9649609 3.57730469,19.6755078 L3.57730469,19.6755078 L0.061875,12.6446875 C-0.0826171875,12.3552344 0.03453125,12.0033203 0.323984375,11.8583984 L0.323984375,11.8583984 L1.61960937,11.2107812 C2.13015625,10.9557031 2.72308594,10.9623437 3.23085937,11.2310937 L3.23085937,11.2310937 Z M2.9296875,12.5208984 C2.78476562,12.2310547 2.43324219,12.1142578 2.14378906,12.2587891 L2.14378906,12.2587891 L1.37195312,12.6446875 L4.36355469,18.6275 L5.135,18.2416016 C5.42445312,18.0966797 5.54164062,17.7451562 5.39710937,17.4557422 L5.39710937,17.4557422 Z M9.00546875,11.1162891 C7.90203125,10.145625 6.23804687,10.145625 5.13460937,11.1162891 L5.13460937,11.1162891 L4.02570312,12.0923828 L6.22128906,16.4839062 L13.5540625,16.4839062 C14.4711719,16.4839062 15.3473047,16.0460547 15.8976562,15.3121094 L15.8976562,15.3121094 L18.7103516,11.5615625 C18.8889062,11.3240625 18.8638672,10.9767969 18.631875,10.7737109 C18.41,10.5795703 18.0483203,10.5584766 17.8123828,10.8116016 L17.8123828,10.8116016 L15.2328516,13.5805859 C14.9016406,13.9364062 14.4328906,14.1403125 13.9466016,14.1403125 L13.9466016,14.1403125 L10.5616406,14.1403125 C10.2382422,14.1403125 9.97574219,13.8778125 9.97574219,13.5544141 C9.97574219,13.2310156 10.2382031,12.9685156 10.5616406,12.9685156 L10.5616406,12.9685156 L13.5540234,12.9685156 C13.8770312,12.9685156 14.1399219,12.705625 14.1399219,12.3826172 C14.1399219,12.0596094 13.8770703,11.7967187 13.5540234,11.7967187 L13.5540234,11.7967187 L10.4807812,11.7967187 C10.0596875,11.7967187 9.65542969,11.6885156 9.00546875,11.1162891 Z M10.6245312,0.000507812499 C11.9260156,0.000507812499 12.968125,1.09339844 12.968125,2.38316406 C12.968125,3.00933594 12.7208594,3.57804687 12.3197266,3.99871094 C13.4107422,4.61273437 14.1399609,5.78375 14.1399609,7.10945312 L14.1399609,7.10945312 L14.1399609,7.69535156 C14.1399609,8.01875 13.8774609,8.28125 13.5540625,8.28125 L13.5540625,8.28125 L7.65597656,8.28125 C7.33257812,8.28125 7.07007812,8.01875 7.07007812,7.69535156 L7.07007812,7.69535156 L7.07007812,7.10945312 C7.07007812,5.7571875 7.84035156,4.60414062 8.91175781,4.00339844 C8.47976562,3.56316406 8.241875,2.99015625 8.241875,2.38316406 C8.241875,1.09144531 9.3328125,0.000507812499 10.6245312,0.000507812499 Z M10.6245312,4.72679687 C9.3328125,4.72679687 8.241875,5.81773437 8.241875,7.10945312 L8.241875,7.10945312 L12.968125,7.10945312 C12.968125,5.79546875 11.9166406,4.72679687 10.6245312,4.72679687 Z M10.6245312,1.17234375 C9.97964844,1.17234375 9.41367187,1.73832031 9.41367187,2.38320312 C9.41367187,3.01832031 9.96832031,3.555 10.6245312,3.555 C11.2705859,3.555 11.7963281,3.02925781 11.7963281,2.38320312 C11.7963281,1.72699219 11.2596484,1.17234375 10.6245312,1.17234375 Z"/>
        </g>
    </g>
</svg>