<svg width="24" height="24" viewBox="0 0 24 24" xmlns="http://www.w3.org/2000/svg"><title>icon/menu/registration</title><g fill="none" fill-rule="evenodd"><path d="M0 0h24v24H0z"/><path d="M12 3.5c2.348 0 4.112 1.83 4.112 4.258v3.1c0 1.163-.53 2.185-1.211 2.94.695.145 1.343.34 1.934.572v1.224a11.44 11.44 0 0 0-3.23-.907 4.142 4.142 0 0 1-1.855.43c-.63 0-1.216-.135-1.74-.374-3.221.524-5.417 2.213-5.417 3.168 0 .073-.006.149-.015.227-.004.042-.01.103-.01.137.008.002.023.012.049.026 1.376.692 4.2 1.122 7.368 1.122 1.598 0 3.108-.11 4.39-.307l.459-.001v1.02c-1.397.236-3.057.365-4.841.365-3.383 0-6.317-.465-7.863-1.242-.72-.364-.64-.972-.613-1.232.005-.039.042-.078.042-.115 0-1.736 2.562-3.285 5.398-3.994-.748-.764-1.07-1.834-1.07-3.058v-3.1C7.887 5.33 9.65 3.5 12 3.5zm0 1.076c-1.723 0-3.017 1.368-3.017 3.183v3.1c0 1.814 1.294 3.182 3.017 3.182 1.722 0 3.016-1.368 3.016-3.182v-3.1c0-1.815-1.294-3.183-3.016-3.183z" stroke="#B5B8BC" stroke-width=".4" fill="#B5B8BC"/><path d="M18.585 13.616a.75.75 0 0 1 .743.648l.007.102v2.25h2.25a.75.75 0 0 1 .102 1.493l-.102.007h-2.25v2.25a.75.75 0 0 1-1.493.102l-.007-.102v-2.25h-2.25a.75.75 0 0 1-.102-1.493l.102-.007h2.25v-2.25a.75.75 0 0 1 .75-.75z" fill="#B5B8BC" fill-rule="nonzero"/></g></svg>