<?xml version="1.0" encoding="UTF-8"?>
<svg width="24px" height="24px" viewBox="0 0 24 24" version="1.1" xmlns="http://www.w3.org/2000/svg" xmlns:xlink="http://www.w3.org/1999/xlink">
    <!-- Generator: Sketch 61.2 (89653) - https://sketch.com -->
    <title>icon/sport-health-beauty</title>
    <desc>Created with Sketch.</desc>
    <g id="icon/sport-health-beauty" stroke="none" stroke-width="1" fill="none" fill-rule="evenodd">
        <g transform="translate(2.000000, 2.000000)" fill="#999999" fill-rule="nonzero">
            <path d="M18.8366209,5.79025578 L19.5321284,5.09474829 C20.1559572,4.47095952 20.1559572,3.45589779 19.5321284,2.83206902 L17.167971,0.467871578 C16.5440622,-0.155877194 15.5290805,-0.155917193 14.9052917,0.467911578 L14.2097842,1.16341906 L13.5709557,0.524550558 C12.947127,-0.0991982144 11.9320652,-0.0992382137 11.3082765,0.524590557 L9.89726185,1.93560516 C9.2719931,2.56079391 9.27187311,3.57301569 9.89726185,4.19832443 L11.3076365,5.60869904 L5.60869904,11.3075965 L4.19832443,9.89722185 C3.57321568,9.2720331 2.5609139,9.27179311 1.93564516,9.89722185 L0.524550558,11.3082365 C-0.0991982144,11.9320652 -0.0991982144,12.947127 0.524590557,13.5709557 L1.16337906,14.2097442 L0.467871578,14.9052517 C-0.155957193,15.5290405 -0.155957193,16.5441022 0.467871578,17.167931 L2.83202902,19.5321284 C3.45601779,20.1559572 4.47091952,20.1559172 5.0947083,19.5320884 L5.79021578,18.8365809 L6.42904428,19.4754094 C7.05283305,20.0991182 8.06789478,20.0991582 8.69172355,19.4754094 L10.1027382,18.0643548 C10.7280069,17.4391661 10.7281269,16.4269443 10.1027382,15.8016356 L8.69236354,14.391261 L14.391261,8.69236354 L15.8016356,10.1027382 C16.4267443,10.7279269 17.4390461,10.7281669 18.0643148,10.1027382 L19.4753694,8.69172355 C20.0991182,8.06789478 20.0991582,7.05283305 19.4753694,6.42904428 L18.8366209,5.79025578 Z M15.8103154,1.37289529 C15.9350732,1.24813753 16.1381095,1.24813753 16.2628673,1.37289529 L18.6269847,3.73705273 C18.7517425,3.86181049 18.7517825,4.06484683 18.6270247,4.18960459 L17.9315172,4.88511207 L15.1148079,2.06836277 L15.8103154,1.37289529 Z M4.18968459,18.6270647 C4.06492683,18.7518225 3.86189049,18.7518225 3.73713273,18.6270647 L1.37301529,16.2629073 C1.24825753,16.1381495 1.24821753,15.9351132 1.37297529,15.8103554 L2.06848277,15.1148479 L4.88519207,17.9315972 L4.18968459,18.6270647 Z M9.19771444,17.1592911 L7.78669984,18.5703057 C7.66194209,18.6950635 7.45890574,18.6950235 7.33414799,18.5703457 C6.05305105,17.2892888 2.73259081,13.9687886 1.42969427,12.665892 C1.30493651,12.5411343 1.30493651,12.3380979 1.42965427,12.2133402 C2.9612667,10.6818077 2.88670804,10.7086072 3.06702479,10.7086072 C3.26746119,10.7086072 2.83410899,10.3430938 9.19775444,16.7067393 C9.32251219,16.831497 9.32279219,17.0342134 9.19771444,17.1592911 L9.19771444,17.1592911 Z M7.78733983,13.4861972 L6.51376275,12.2126202 L12.2126602,6.51372275 L13.4862372,7.78729983 L7.78733983,13.4861972 Z M18.5703457,7.78665984 C17.0387333,9.31819227 17.113292,9.29139275 16.9329752,9.29139275 C16.7503385,9.29139275 16.8486167,9.33959189 14.8438128,7.33478797 C10.4895312,2.98050635 10.7085672,3.25638139 10.7085672,3.06698479 C10.7085672,2.88834801 10.6766478,2.96634661 12.2133002,1.42965427 C12.275699,1.36725539 12.3576176,1.33605595 12.4395761,1.33605595 C12.6268127,1.33605595 12.1068221,0.870624329 18.5703057,7.33406799 C18.6950635,7.45886574 18.6950635,7.66190209 18.5703457,7.78665984 Z"/>
        </g>
    </g>
</svg>