<?xml version="1.0" encoding="UTF-8"?>
<svg width="24px" height="24px" viewBox="0 0 24 24" version="1.1" xmlns="http://www.w3.org/2000/svg" xmlns:xlink="http://www.w3.org/1999/xlink">
    <!-- Generator: Sketch 61.2 (89653) - https://sketch.com -->
    <title>icon/tourism</title>
    <desc>Created with Sketch.</desc>
    <g id="icon/tourism" stroke="none" stroke-width="1" fill="none" fill-rule="evenodd">
        <g transform="translate(2.000000, 5.000000)" fill="#999999" fill-rule="nonzero" stroke="#999999" stroke-width="0.3">
            <path d="M19.9055652,13.0772913 L15.1809214,4.69662245 C14.9316228,4.25437239 14.4962258,3.99106302 14.0151418,3.99106302 C14.0125529,3.99106302 14.0101162,3.99106302 14.0075273,3.99106302 C13.5227883,3.99380426 13.0864776,4.26320519 12.840377,4.71169916 L12.1663417,5.94022226 L9.21541903,0.705711667 C8.96612037,0.263309336 8.53072336,0 8.0496394,0 C8.04705044,0 8.04446152,0 8.04202488,0 C7.55713364,0.00289351904 7.12097519,0.272294453 6.87487461,0.720788383 L0.0921842337,13.0832307 C-0.00726110213,13.2644557 -0.00375842324,13.4845147 0.101473951,13.6623894 C0.206858605,13.8402641 0.398134798,13.9493037 0.604792267,13.9493037 L19.3961553,13.9493037 C19.6040311,13.9493037 19.7962211,13.8388935 19.9011488,13.6594959 C20.0059243,13.479946 20.0075995,13.2583641 19.9055652,13.0772913 L19.9055652,13.0772913 Z M7.90024291,1.28334752 C7.94029518,1.21040062 7.99298749,1.17004379 8.04872564,1.16973919 L8.04948708,1.16973919 C8.10415918,1.16973919 8.15639465,1.2088777 8.1965992,1.28014941 L9.96255361,4.41260164 L9.06191075,6.05413515 L8.67006869,5.3574086 C8.56635923,5.17313773 8.37158036,5.05922484 8.16035417,5.05922484 C8.15959273,5.05922484 8.15898357,5.05922484 8.15822213,5.05922484 C7.94608222,5.05998628 7.75115107,5.17557437 7.64850762,5.36106356 L6.39059253,7.63642788 L5.39019977,5.85844256 L7.90024291,1.28334752 Z M1.59269726,12.7797168 L4.72758613,7.06594966 L5.88544673,9.12384392 C5.9890039,9.30796251 6.18393506,9.42187541 6.39500892,9.42187541 L6.39729328,9.42187541 C6.60928091,9.42111393 6.80421206,9.30567815 6.90685552,9.12003668 L8.16461829,6.84497696 L8.55828783,7.54505391 C8.66199733,7.72917246 8.85677616,7.84308535 9.06800235,7.84308535 L9.07104815,7.84308535 C9.28349265,7.84201931 9.47857609,7.7258221 9.58076266,7.53972375 L10.6385688,5.6118851 L11.6593684,7.4224605 C11.6624142,7.4282475 11.6656123,7.43388221 11.6689626,7.43951697 L13.0232773,9.8418911 C13.1819634,10.123323 13.5384742,10.2227683 13.8199061,10.0640822 C14.1013379,9.90554833 14.2007832,9.54888521 14.0420971,9.26745336 L12.8425091,7.13950573 L13.8657453,5.27441054 C13.9057976,5.20131136 13.9586422,5.16095453 14.0142281,5.16064993 L14.0149895,5.16064993 C14.0696616,5.16064993 14.1220493,5.19978848 14.1621016,5.27106018 L18.3951534,12.7797168 L1.59269726,12.7797168 Z"/>
        </g>
    </g>
</svg>