<?xml version="1.0" encoding="UTF-8"?>
<svg width="24px" height="24px" viewBox="0 0 24 24" version="1.1" xmlns="http://www.w3.org/2000/svg" xmlns:xlink="http://www.w3.org/1999/xlink">
    <!-- Generator: Sketch 61.2 (89653) - https://sketch.com -->
    <title>icon/transport</title>
    <desc>Created with Sketch.</desc>
    <g id="icon/transport" stroke="none" stroke-width="1" fill="none" fill-rule="evenodd">
        <g transform="translate(1.000000, 5.000000)" fill="#999999" fill-rule="nonzero">
            <path d="M14.240181,0.02 C14.9179938,0.02 15.5679925,0.276523296 16.0618044,0.733601573 L16.205134,0.876685738 L19.0928936,3.985 L20.9817118,3.98550599 C21.3582696,3.98550599 21.66353,4.29076639 21.66353,4.66732417 C21.66353,5.00964943 21.4112487,5.29305123 21.0824659,5.34174969 L20.9817118,5.34914235 L20.2758936,5.348 L20.2925554,5.3660129 C20.7083287,5.81268757 20.9579386,6.38618047 21.0037029,6.99070192 L21.0113561,7.19322688 L21.0113561,12.2967814 C21.0113561,13.1767375 20.3355552,13.8988518 19.4746516,13.9724263 L19.3295379,13.9785996 L18.2477154,13.9785996 C17.7485735,13.9785996 17.2783115,13.7571296 16.9606399,13.3793694 L16.8605706,13.2477502 L16.2678936,12.383 L5.69489363,12.383 L5.10285303,13.2477502 C4.82061777,13.6594369 4.37204641,13.9220755 3.88084952,13.9704864 L3.7157082,13.9785996 L2.63388573,13.9785996 C1.75392964,13.9785996 1.0318153,13.3027987 0.958240821,12.4418951 L0.952067544,12.2967814 L0.952067544,7.18884435 C0.952067544,6.58177525 1.15795274,5.99477005 1.53278997,5.52223989 L1.66394253,5.36909915 L1.68189363,5.349 L0.981711813,5.34914235 C0.639386555,5.34914235 0.355984756,5.09686103 0.307286291,4.76807826 L0.299893631,4.66732417 C0.299893631,4.32499891 0.552174952,4.04159711 0.880957719,3.99289865 L0.981711813,3.98550599 L2.89189363,3.985 L5.75633606,0.882776046 C6.21786811,0.382792272 6.85025993,0.0788318507 7.52377124,0.0276984169 L7.72692847,0.02 L14.240181,0.02 Z M3.20889363,5.705 L2.66560856,6.29439332 C2.47277791,6.50313981 2.35344128,6.76759928 2.32328042,7.04768493 L2.31570391,7.18884435 L2.31570391,12.2967814 C2.31570391,12.4474045 2.42036462,12.5735828 2.56092955,12.6065598 L2.63388573,12.6149632 L3.7157082,12.6149632 C3.79964798,12.6149632 3.87927072,12.5818573 3.93813853,12.524306 L3.978141,12.4766944 L6.12144016,9.35033902 C6.40367542,8.93865234 6.85224679,8.67601366 7.34344367,8.62760279 L7.50858499,8.61948961 L14.4548386,8.61948961 C14.9539806,8.61948961 15.4242426,8.84095962 15.7419142,9.21871983 L15.8419835,9.35033902 L17.9852826,12.4766944 C18.0327456,12.545927 18.105073,12.5928795 18.1858269,12.6088912 L18.2477154,12.6149632 L19.3295379,12.6149632 C19.480161,12.6149632 19.6063393,12.5103025 19.6393163,12.3697376 L19.6477197,12.2967814 L19.6477197,7.19322688 C19.6477197,6.90756442 19.554973,6.63099029 19.3854793,6.4041766 L19.2944109,6.29510475 L18.7478936,5.708 L16.9070112,7.0447333 C16.5065034,7.33503368 16.0346883,7.50809524 15.5442744,7.54682468 L15.3331119,7.55514877 L6.63031172,7.55514877 C6.13565947,7.55514877 5.65207637,7.41837476 5.23227071,7.16192003 L5.05641241,7.0447333 L3.20889363,5.705 Z M14.4548386,9.98312598 L7.50858499,9.98312598 C7.42464521,9.98312598 7.34502247,10.0162319 7.28615466,10.0737832 L7.24615219,10.1213948 L6.62989363,11.019 L15.3328936,11.019 L14.7172714,10.1213948 C14.6698085,10.0521622 14.5974811,10.0052097 14.5167272,9.98919802 L14.4548386,9.98312598 Z M14.240181,1.38363636 L7.72692847,1.38363636 C7.40501796,1.38363636 7.09592355,1.50134826 6.85650735,1.71187636 L6.7583322,1.80771273 L4.11089363,4.675 L5.8567002,5.94063022 C6.04418571,6.07652548 6.26346197,6.16015238 6.49214914,6.18425314 L6.63031172,6.1915124 L15.3331119,6.1915124 C15.5646682,6.1915124 15.7912896,6.13053471 15.9905963,6.01583711 L16.1067234,5.94063022 L17.8638936,4.666 L15.2060053,1.80471918 C14.9877718,1.56976709 14.6925727,1.42358963 14.3766709,1.39071639 L14.240181,1.38363636 Z"/>
        </g>
    </g>
</svg>