<svg width="20" height="16" viewBox="0 0 20 16" fill="none" xmlns="http://www.w3.org/2000/svg">
<path d="M1.09995 8.5C0.899951 8.2 0.899951 7.9 1.09995 7.6C2.99995 4 6.49995 1 9.99995 1C13.5 1 17 4 18.9 7.5C19.1 7.8 19.1 8.1 18.9 8.4C17 12 13.5 15 9.99995 15C6.49995 15 2.99995 12 1.09995 8.5Z" stroke="#0058C5" stroke-width="1.5" stroke-linecap="round" stroke-linejoin="round"/>
<path d="M10 11C11.6569 11 13 9.65685 13 8C13 6.34315 11.6569 5 10 5C8.34315 5 7 6.34315 7 8C7 9.65685 8.34315 11 10 11Z" stroke="#0058C5" stroke-width="1.4286" stroke-linecap="round" stroke-linejoin="round"/>
</svg>