<?xml version="1.0" encoding="UTF-8"?>
<svg width="22px" height="22px" viewBox="0 0 22 22" version="1.1" xmlns="http://www.w3.org/2000/svg" xmlns:xlink="http://www.w3.org/1999/xlink">
    <!-- Generator: sketchtool 52.6 (67491) - http://www.bohemiancoding.com/sketch -->
    <title>2E8C0570-1052-45F6-98D2-91984EA31DA6</title>
    <desc>Created with sketchtool.</desc>
    <g id="Symbols" stroke="none" stroke-width="1" fill="none" fill-rule="evenodd">
        <g id="footer" transform="translate(-981.000000, -54.000000)" fill="#C7C9CD" fill-rule="nonzero">
            <path d="M992,54 C985.925074,54 981,58.9248491 981,65 C981,71.0751509 985.925074,76 992,76 C998.074926,76 1003,71.0751509 1003,65 C1003,58.9248491 998.074926,54 992,54 Z M996.670418,66.5956629 C997.12129,67.0360449 997.598288,67.4504989 998.003044,67.9364035 C998.182363,68.1513496 998.351391,68.3736188 998.480042,68.6235975 C998.663716,68.9800595 998.497855,69.3709604 998.178801,69.3921383 L996.196982,69.3917425 C995.68515,69.4340983 995.277821,69.2276631 994.934422,68.8777325 C994.660297,68.5988569 994.405964,68.3009805 994.141932,68.0126045 C994.034063,67.8942456 993.920455,67.7828141 993.785074,67.6951336 C993.514907,67.5193766 993.280169,67.5732121 993.125392,67.8554524 C992.967646,68.1426409 992.931624,68.4609035 992.916582,68.7805516 C992.895008,69.2478514 992.754085,69.3699708 992.285202,69.3919404 C991.283308,69.4388485 990.332677,69.2868425 989.449142,68.7817391 C988.669715,68.3362111 988.066441,67.7074049 987.540754,66.9954704 C986.517088,65.6076237 985.733109,64.0843966 985.028696,62.5174282 C984.870158,62.1645288 984.986142,61.9757088 985.37546,61.9683856 C986.022277,61.9559164 986.669094,61.9574998 987.315912,61.9677919 C987.579151,61.9719483 987.753325,62.1225688 987.854464,62.3709641 C988.203999,63.2309461 988.632505,64.0491661 989.169475,64.8080087 C989.312574,65.0100896 989.458642,65.2115767 989.666661,65.3542803 C989.896253,65.5118282 990.071219,65.4597741 990.179483,65.2034618 C990.248757,65.04057 990.278644,64.8663964 990.293686,64.691827 C990.345146,64.093897 990.351282,63.496165 990.262216,62.9006101 C990.206797,62.5279182 989.997195,62.287242 989.625691,62.2167809 C989.436475,62.1809566 989.464184,62.1108913 989.556219,62.0028245 C989.715944,61.8159838 989.865575,61.7003958 990.164639,61.7003958 L992.403759,61.7 C992.756659,61.7692736 992.835828,61.9276132 992.883726,62.2830856 L992.885705,64.7713926 C992.881549,64.9089502 992.954781,65.3166747 993.201791,65.4067303 C993.399715,65.4720454 993.530345,65.3133099 993.648704,65.1880237 C994.185674,64.618199 994.568262,63.9456515 994.910869,63.249551 C995.062083,62.9425701 995.192516,62.6249013 995.319187,62.3066386 C995.413399,62.0713064 995.559863,61.9555205 995.825478,61.959479 L997.981668,61.9620521 C998.045202,61.9620521 998.109725,61.9626458 998.172665,61.9735317 C998.536054,62.03568 998.63561,62.1920403 998.523189,62.5465232 C998.346245,63.1034827 998.00245,63.5674178 997.666374,64.0325404 C997.306151,64.5305185 996.92198,65.0110792 996.56532,65.5112345 C996.237557,65.9684401 996.263485,66.1986263 996.670418,66.5956629 Z" id="vk"/>
        </g>
    </g>
</svg>