<?xml version="1.0" encoding="UTF-8"?>
<svg width="20px" height="24px" viewBox="0 0 20 24" version="1.1" xmlns="http://www.w3.org/2000/svg" xmlns:xlink="http://www.w3.org/1999/xlink">
    <!-- Generator: sketchtool 64 (101010) - https://sketch.com -->
    <title>5AFA05E5-531D-40E3-A2FB-A46AD6B670A7</title>
    <desc>Created with sketchtool.</desc>
    <g id="Prorotype-Delivery" stroke="none" stroke-width="1" fill="none" fill-rule="evenodd">
        <g id="Ad-View-(NEW)-+-Delivery-+-Bargaining" transform="translate(-734.000000, -1322.000000)" fill="#73B222" fill-rule="nonzero">
            <g id="NEW" transform="translate(70.000000, 1288.000000)">
                <g id="bargaining" transform="translate(370.000000, 0.000000)">
                    <g id="icon/bargaining_card" transform="translate(294.000000, 34.000000)">
                        <path d="M9.76408537,-4.02344824e-12 L9.22178081,-4.02344824e-12 C9.06855579,-4.02344824e-12 8.91850429,0.0422657423 8.78908765,0.12185634 C7.39902478,0.976546978 5.41845285,2.68159335 3.83754057,4.60366724 C2.70750764,5.97747836 1.81158315,7.41126876 1.17443669,8.8648754 C0.394928182,10.6432733 0,12.4606928 0,14.2672293 C0,19.6335461 4.48592697,24 9.99998795,24 C15.4155836,24 19.8394364,19.7880986 19.995727,14.5563851 L20,14.2700267 L19.9924059,13.8273362 C19.9090531,11.6081051 19.256944,10.0225748 17.8820738,8.04187882 L17.6319156,7.68803275 L17.1292246,6.99601354 C16.1738678,5.67788659 15.794428,4.95767365 15.7507299,4.09560688 L15.7463956,3.92108295 L15.7463956,3.58010513 C15.7463956,3.36597066 15.5897591,3.18695221 15.3811375,3.14554345 L15.2888505,3.13652074 L14.8402375,3.13652074 C14.6530933,3.13652074 14.4717822,3.19955353 14.3272031,3.31482509 C14.121706,3.47862834 13.7570332,3.85073641 13.354511,4.31179279 L13.0474182,4.67239794 L12.6975456,5.10501052 L12.4534719,5.12726079 C11.021185,3.90888888 10.3035814,2.68824233 10.2282684,1.07365791 L10.2216304,0.784562212 L10.2216304,0.443584389 C10.2216304,0.229449926 10.0649939,0.0504314755 9.85637228,0.00902271377 L9.76408537,-4.02344824e-12 Z M8.71902665,2.09780804 L8.77894094,2.35588611 C9.18472931,4.10380114 10.1996258,5.40530942 11.9408527,6.75494121 L12.2619856,6.99913228 L12.3840011,7.07221811 C12.7425739,7.24873073 13.1842601,7.14122093 13.4144145,6.81675406 C13.5884913,6.57137128 13.7694142,6.32936007 13.953959,6.09380024 L14.412222,5.52737314 L14.5218006,5.78602025 C14.7150224,6.24209693 14.9691532,6.68760476 15.3290595,7.220477 L15.518035,7.49464688 L16.3352671,8.62644404 C17.6879654,10.5112586 18.3081728,11.902831 18.3768411,13.8634605 L18.3832706,14.2155773 L18.3779876,14.5595359 C18.2189361,18.9376714 14.5106176,22.4308756 9.99998795,22.4308756 C5.37746123,22.4308756 1.61668645,18.769012 1.61668645,14.2672293 C1.61668645,11.3140686 2.79076652,8.39126921 5.10097388,5.58257451 C6.0076364,4.48028883 7.04007385,3.4665566 8.06796346,2.61692566 L8.5078292,2.26306539 L8.71902665,2.09780804 Z M12.8676552,9.65122468 L12.0233094,9.65122468 C11.6689495,9.65122468 11.3400832,9.81899013 11.1384202,10.0953575 L11.0689578,10.2039705 L6.43901576,18.5296671 C6.38521932,18.6264054 6.42227821,18.7471814 6.52237713,18.7997737 L6.57016734,18.8178733 L6.6211144,18.8240357 L7.46546019,18.8240357 C7.81982017,18.8240357 8.14868644,18.6562703 8.35034948,18.3799029 L8.41981182,18.2712899 L13.0497539,9.94559331 C13.1035503,9.84885498 13.0664914,9.72807904 12.9663925,9.67548675 L12.9186023,9.65738715 L12.8676552,9.65122468 Z M13.2645892,15.8292201 C12.5478462,15.8292201 11.9673287,16.3934865 11.9673287,17.0890127 C11.9673287,17.7845389 12.5478462,18.3488053 13.2645892,18.3488053 C13.9813321,18.3488053 14.5618497,17.7845389 14.5618497,17.0890127 C14.5618497,16.3934865 13.9813321,15.8292201 13.2645892,15.8292201 Z M6.17528873,10.1264551 C5.45854579,10.1264551 4.87802823,10.6907215 4.87802823,11.3862477 C4.87802823,12.0817739 5.45854579,12.6460403 6.17528873,12.6460403 C6.89203167,12.6460403 7.47254922,12.0817739 7.47254922,11.3862477 C7.47254922,10.6907215 6.89203167,10.1264551 6.17528873,10.1264551 Z" id="Shape"/>
                    </g>
                </g>
            </g>
        </g>
    </g>
</svg>