<?xml version="1.0" encoding="UTF-8"?>
<svg width="22px" height="22px" viewBox="0 0 22 22" version="1.1" xmlns="http://www.w3.org/2000/svg" xmlns:xlink="http://www.w3.org/1999/xlink">
    <!-- Generator: sketchtool 64 (101010) - https://sketch.com -->
    <title>099FB64F-EBF6-4051-AF17-EA5501A9D4F9@3x</title>
    <desc>Created with sketchtool.</desc>
    <g id="ad-_-add-to-favourites" stroke="none" stroke-width="1" fill="none" fill-rule="evenodd">
        <g id="ad-_-add-to-fav-default-" transform="translate(-338.000000, -54.000000)" fill="#A2A6AB" fill-rule="nonzero" stroke="#A2A6AB" stroke-width="0.3">
            <g id="header" transform="translate(0.000000, 40.000000)">
                <g id="heart">
                    <g transform="translate(338.000000, 15.000000)">
                        <path d="M15.6601184,0 C13.8724415,0 12.1989953,0.807581699 11.0847953,2.16067362 C9.97059532,0.807535649 8.29719532,0 6.50947224,0 C3.24261071,0 0.584795322,2.6517986 0.584795322,5.91136725 C0.584795322,8.46374356 2.11017994,11.4159734 5.11848763,14.6860415 C7.43361071,17.2025447 9.95208763,19.1510192 10.6688107,19.6882865 L11.0846569,20 L11.500503,19.6883325 C12.2172261,19.1510653 14.7357953,17.2026368 17.0509646,14.6861336 C20.0593646,11.4160655 21.5847953,8.46378961 21.5847953,5.91136725 C21.5847953,2.6517986 18.9269799,0 15.6601184,0 Z M16.0309184,13.7518679 C14.1266569,15.8217306 12.0779338,17.4949633 11.0846569,18.2661193 C10.0914261,17.4949633 8.04279532,15.8216846 6.13853378,13.7518219 C3.41107224,10.7870664 1.96941071,8.07586304 1.96941071,5.91136725 C1.96941071,3.41360644 4.00608763,1.38150487 6.50947224,1.38150487 C8.15688763,1.38150487 9.67802609,2.27736473 10.479303,3.71951767 L11.0847953,4.80934081 L11.6902876,3.71951767 C12.4915184,2.27741078 14.0126569,1.38150487 15.6601184,1.38150487 C18.163503,1.38150487 20.2001799,3.41356039 20.2001799,5.91136725 C20.2001799,8.07595514 18.7584722,10.7871585 16.0309184,13.7518679 Z" id="Shape"/>
                    </g>
                </g>
            </g>
        </g>
    </g>
</svg>