<?xml version="1.0" encoding="UTF-8"?>
<svg width="26px" height="21px" viewBox="0 0 26 21" version="1.1" xmlns="http://www.w3.org/2000/svg" xmlns:xlink="http://www.w3.org/1999/xlink">
    <!-- Generator: Sketch 52.2 (67145) - http://www.bohemiancoding.com/sketch -->
    <title>mastercard</title>
    <desc>Created with Sketch.</desc>
    <g id="Symbols" stroke="none" stroke-width="1" fill="none" fill-rule="evenodd">
        <g id="Artboard" fill-rule="nonzero">
            <g id="mastercard">
                <path d="M3.37663464,17.4574932 C3.88098619,17.4574932 4.35121494,17.8290809 4.35133384,18.4887367 L4.35133384,19.7875989 C4.35133384,19.8763976 4.21716111,19.9704754 4.05504811,19.9704754 C3.9034573,19.9704754 3.76369651,19.8764532 3.76369651,19.7875989 L3.76369651,18.4887367 C3.76369651,18.1275958 3.50028518,17.9388846 3.24252136,17.9388846 C2.97911003,17.9388846 2.71575815,18.1380427 2.71575815,18.4782897 L2.71575815,19.7928223 C2.71575815,19.9182408 2.57040931,19.9704754 2.4188185,19.9704754 C2.28464577,19.9704754 2.1274669,19.9182408 2.1274669,19.7928223 L2.1274669,18.4835132 C2.1274669,18.1589366 1.88147366,17.9441081 1.60694567,17.9441081 C1.34353434,17.9441081 1.08577051,18.1328193 1.08577051,18.4887367 L1.08577051,19.776763 C1.08577051,19.9287632 0.959723698,19.9704754 0.78889031,19.9704754 C0.618056922,19.9704754 0.497538715,19.8880768 0.497538715,19.7611482 L0.497538715,17.6665425 C0.497538715,17.5620734 0.615601206,17.4888895 0.78889031,17.4888895 C0.929245568,17.4888895 1.05224219,17.5620178 1.05224219,17.6665425 L1.05224219,17.8552537 C1.17523881,17.6508166 1.42182654,17.4574932 1.79699893,17.4574932 C2.13305496,17.4574932 2.40205434,17.671766 2.53123349,17.9806722 C2.72687481,17.6246993 3.05175472,17.4574932 3.37663464,17.4574932 Z M5.79108986,17.4574932 C6.61473327,17.4574932 6.92284903,17.9492759 6.92284903,18.4730107 L6.92284903,19.7875433 C6.92284903,19.886789 6.79919849,19.9704198 6.63708549,19.9704198 C6.48555412,19.9704198 6.36814555,19.8868445 6.36814555,19.7875433 L6.36814555,19.6040555 C6.17185031,19.8189396 5.90285093,20.012263 5.52209048,20.012263 C5.11338976,20.012263 4.77733374,19.7928223 4.77733374,19.3213221 C4.77733374,18.7296824 5.30962556,18.5723119 6.08797006,18.5723119 L6.33455779,18.5723119 L6.33455779,18.4782342 C6.33455779,18.2111711 6.18855503,17.9127118 5.77985431,17.9127118 C5.37115359,17.9127118 5.26991471,18.0700822 5.15809419,18.0700822 C5.01833341,18.0700822 4.94503479,17.9179352 4.94503479,17.7925167 C4.94503479,17.6038055 5.41032941,17.4574932 5.79108986,17.4574932 Z M6.33461723,19.0699294 L6.33461723,18.8759948 L6.19426198,18.8759948 C5.76873765,18.8759948 5.37121304,18.9183937 5.37121304,19.2534172 C5.37121304,19.4891395 5.52773798,19.5936642 5.73520933,19.5936642 C6.01532537,19.5936642 6.33461723,19.3213221 6.33461723,19.0699294 Z M7.95336931,18.1849983 C7.95336931,18.6460516 9.31435757,18.3423688 9.31441701,19.2847024 C9.31441701,19.729474 8.96159683,20.012263 8.32860116,20.012263 C7.7745516,20.012263 7.36519696,19.7927668 7.36519696,19.5936086 C7.36519696,19.4995864 7.44907721,19.3474394 7.56708026,19.3474394 C7.71242909,19.3474394 7.83043214,19.5883852 8.311837,19.5883852 C8.68142134,19.5883852 8.78824828,19.4466851 8.78824828,19.3055962 C8.78824828,18.7557441 7.43784166,19.0803208 7.43784166,18.2111155 C7.43784166,17.8499747 7.69001743,17.4574376 8.3956578,17.4574376 C8.8161291,17.4574376 9.23606537,17.5985265 9.23606537,17.7663439 C9.23606537,17.8447513 9.15218512,18.0334625 9.01182986,18.0334625 C8.89442129,18.0334625 8.72113219,17.8813155 8.40683391,17.8813155 C8.07636594,17.8813155 7.95336931,18.0543563 7.95336931,18.1849983 Z M10.9560563,19.4995864 C11.1237574,19.4995864 11.2076376,19.614558 11.2075782,19.7347531 C11.2075782,19.8555038 11.1236979,19.9704754 10.9559969,19.9704754 L10.7597016,19.9704754 C10.1211774,19.9704754 9.77953329,19.7242506 9.77953329,19.1535047 L9.77953329,16.5302187 C9.77953329,16.4257496 9.93052963,16.3525656 10.0708849,16.3525656 C10.2162337,16.3525656 10.3678245,16.425694 10.3678245,16.5302187 L10.3678245,17.4888339 L11.0511127,17.4888339 C11.1517571,17.4888339 11.2138796,17.5881351 11.2138796,17.6926598 C11.2138796,17.7977402 11.1517571,17.8970414 11.0511127,17.8970414 L10.3678245,17.8970414 L10.3678245,19.1535047 C10.3678245,19.404953 10.4684095,19.4995864 10.7597611,19.4995864 L10.9560563,19.4995864 Z M13.527096,19.3683332 C13.6668567,19.3683332 13.7569195,19.5204803 13.7569195,19.6145025 C13.7569195,19.7713173 13.3923287,20.012263 12.8270436,20.012263 C12.0648688,20.012263 11.5269295,19.5936642 11.5269295,18.9706282 L11.5269295,18.4730107 C11.5269295,17.9231587 12.0480452,17.4574932 12.692217,17.4574932 C13.2916249,17.4574932 13.807212,17.8552537 13.807212,18.4259996 C13.807212,18.8603244 13.5493887,18.8759948 13.2972129,18.8759948 L12.1151613,18.8759948 L12.1151613,18.9967455 C12.1151613,19.3474394 12.4121009,19.5674914 12.8438078,19.5674914 C13.2413324,19.5674914 13.3755051,19.3683332 13.527096,19.3683332 Z M12.6866289,17.876092 C12.3785132,17.876092 12.1151613,18.0804736 12.1151613,18.368486 L12.1151613,18.5356922 L13.0450372,18.5356922 C13.2078041,18.5356922 13.2525085,18.5043514 13.2525085,18.3789329 C13.2525085,18.1013674 13.0059208,17.876092 12.6866289,17.876092 Z M15.7284918,17.4574932 C15.8459003,17.4574932 15.9527273,17.5672413 15.9527867,17.6979388 C15.9527867,17.8343599 15.8459598,17.9441081 15.7285512,17.9441081 L15.5490201,17.9441081 C15.2073761,17.9441081 14.87132,18.2372884 14.87132,18.7140121 L14.87132,19.7875989 C14.87132,19.8763976 14.7371473,19.9704754 14.5687923,19.9704754 C14.4010318,19.9704754 14.2830288,19.8764532 14.2830288,19.7875989 L14.2830288,17.6665425 C14.2830288,17.5620734 14.4010913,17.4888895 14.5687923,17.4888895 C14.7147357,17.4888895 14.8377323,17.5620178 14.8377323,17.6665425 L14.8377323,17.8970414 C14.9557353,17.6769894 15.2184927,17.4574932 15.5489607,17.4574932 L15.7284918,17.4574932 Z M18.0081203,19.3526629 C18.1652992,19.3526629 18.2603556,19.5048099 18.2602961,19.6145025 C18.2602961,19.7979902 17.8907118,20.012263 17.3751247,20.012263 C16.5688399,20.012263 16.2104317,19.5675469 16.2104317,18.9706282 L16.2104317,18.499128 C16.2104317,17.9127118 16.5688399,17.4574932 17.3695366,17.4574932 C17.8795357,17.4574932 18.2267678,17.65604 18.2267678,17.8395278 C18.2267678,17.9440525 18.1317114,18.1066464 17.9913562,18.1066464 C17.8739476,18.1066464 17.7733627,17.9440525 17.4143005,17.9440525 C16.9944237,17.9440525 16.7981284,18.1536575 16.7981284,18.499128 L16.7981284,18.9706282 C16.7981284,19.3160987 16.9887762,19.5257037 17.4198886,19.5257037 C17.7900674,19.5257037 17.8795357,19.3526629 18.0081203,19.3526629 Z M19.5318755,17.4574932 C20.3555189,17.4574932 20.6636347,17.9492759 20.6636347,18.4730107 L20.6636347,19.7875433 C20.6636347,19.886789 20.5399841,19.9704198 20.3778711,19.9704198 C20.2263398,19.9704198 20.1089312,19.8868445 20.1089312,19.7875433 L20.1089312,19.6040555 C19.912636,19.8189396 19.6442905,20.012263 19.2628761,20.012263 C18.8541754,20.012263 18.5181194,19.7928223 18.5181194,19.3213221 C18.5181194,18.7296824 19.0504112,18.5723119 19.8287557,18.5723119 L20.0753434,18.5723119 L20.0753434,18.4782342 C20.0753434,18.2111711 19.9293407,17.9127118 19.52064,17.9127118 C19.1119392,17.9127118 19.0112948,18.0700822 18.8988798,18.0700822 C18.7591191,18.0700822 18.6858204,17.9179352 18.6858204,17.7925167 C18.6858204,17.6038055 19.1511151,17.4574932 19.5318755,17.4574932 Z M19.475995,19.5936642 C19.756111,19.5936642 20.0754029,19.3213221 20.0754029,19.0699294 L20.0754029,18.8759948 L19.9350476,18.8759948 C19.5095233,18.8759948 19.1119987,18.9183937 19.1119987,19.2534172 C19.1119987,19.4891395 19.2685236,19.5936642 19.475995,19.5936642 Z M22.7078516,17.4574932 C22.8259141,17.4574932 22.9321466,17.5672413 22.9321466,17.6979388 C22.9321466,17.8343599 22.8259141,17.9441081 22.7079111,17.9441081 L22.5290339,17.9441081 C22.1873899,17.9441081 21.8513338,18.2372884 21.8513338,18.7140121 L21.8513338,19.7875989 C21.8513338,19.8763976 21.7165072,19.9704754 21.5488061,19.9704754 C21.3804512,19.9704754 21.2630426,19.8764532 21.2630426,19.7875989 L21.2630426,17.6665425 C21.2630426,17.5620734 21.3804512,17.4888895 21.5488061,17.4888895 C21.694155,17.4888895 21.8177461,17.5620178 21.8177461,17.6665425 L21.8177461,17.8970414 C21.9351546,17.6769894 22.1985065,17.4574932 22.5289745,17.4574932 L22.7078516,17.4574932 Z M25.2061871,16.012263 C25.3745421,16.012263 25.4975387,16.085447 25.4975387,16.1899717 L25.4975387,20.0087066 C25.3444648,20.0087066 25.1474768,20.0087066 24.9065747,20.0087066 C24.9065747,19.9543114 24.9065747,19.9082279 24.9065747,19.8704562 C24.8873114,20.0087066 24.4100894,20.0087066 24.2415345,20.0087066 C24.2160316,20.0110405 24.1905881,20.0122075 24.1644907,20.0122075 C23.6377275,20.0122075 23.1786749,19.5152012 23.1786749,18.9705726 L23.1786749,18.4886255 C23.1786749,17.9231031 23.6321395,17.4574376 24.1812549,17.4574376 C24.5340751,17.4574376 24.7862508,17.6508166 24.9092475,17.8551982 L24.9092475,16.1899161 C24.9092475,16.085447 25.0384861,16.012263 25.2061871,16.012263 Z M24.9093069,19.0908233 L24.9093069,18.4886811 C24.9093069,18.1484341 24.6179553,17.9440525 24.3384338,17.9440525 C24.0241355,17.9440525 23.7669661,18.216339 23.7669661,18.4886811 L23.7669661,18.9706282 C23.7669661,19.2533616 24.0241355,19.5257037 24.3322512,19.5257037 C24.6577256,19.5257037 24.9093069,19.2167974 24.9093069,19.0908233 Z" id="Combined-Shape" fill="#C7C9CD"/>
                <circle id="Oval" fill="#95969A" cx="8" cy="8" r="8"/>
                <circle id="Oval" fill="#C7C9CD" cx="18" cy="8" r="8"/>
                <path d="M10,8 C10,10.43117 11.1722951,12.8458555 13,14.2483911 C14.8276448,12.8457975 16,10.43117 16,8 C16,5.56882996 14.8277049,3.15407675 13,1.75154114 C11.1723552,3.1541928 10,5.56888799 10,8 Z" id="Shape" fill="#AFB2B6"/>
            </g>
        </g>
    </g>
</svg>