<?xml version="1.0" encoding="UTF-8"?>
<svg width="22px" height="22px" viewBox="0 0 22 22" version="1.1" xmlns="http://www.w3.org/2000/svg" xmlns:xlink="http://www.w3.org/1999/xlink">
    <!-- Generator: sketchtool 52.6 (67491) - http://www.bohemiancoding.com/sketch -->
    <title>75DA4E20-E8BE-4245-BC55-D118F77E0A2C</title>
    <desc>Created with sketchtool.</desc>
    <g id="Symbols" stroke="none" stroke-width="1" fill="none" fill-rule="evenodd">
        <g id="footer" transform="translate(-948.000000, -54.000000)" fill="#C7C9CD" fill-rule="nonzero">
            <path d="M959,54 C965.074926,54 970,58.9248491 970,65 C970,71.0751509 965.074926,76 959,76 C952.925074,76 948,71.0751509 948,65 C948,58.9248491 952.925074,54 959,54 Z M960.635758,61.7376684 C960.638799,62.6453867 959.917712,63.3728333 959.011929,63.3760129 C958.103381,63.3793308 957.374137,62.6616997 957.367363,61.7572992 C957.360313,60.8411479 958.089833,60.1052684 959.003496,60.1062361 C959.909555,60.1070656 960.632578,60.8298118 960.635758,61.7376684 Z M958.976676,65.0812681 C960.82073,65.0876274 962.328018,63.6086797 962.337419,61.7839805 C962.346681,59.9161489 960.864001,58.40499 959.016767,58.4000131 C957.173267,58.3948981 955.67538,59.8846289 955.664873,61.7332445 C955.654228,63.5616763 957.151148,65.0750471 958.976676,65.0812681 Z M958.353328,67.6975596 C958.281026,67.7748387 958.234714,67.8279249 958.185084,67.8779697 C957.434689,68.6303004 956.68457,69.3833223 955.932378,70.1344088 C955.776852,70.2896582 955.665426,70.4627413 955.654366,70.6893252 C955.63833,71.0242935 955.846113,71.3576028 956.172648,71.5158936 C956.479829,71.6650603 956.795028,71.6180569 957.059906,71.3569116 C957.649798,70.7753138 958.236235,70.1903981 958.81327,69.5963582 C958.957599,69.4478828 959.03626,69.4155334 959.199804,69.5865428 C959.761771,70.1746381 960.346134,70.7411672 960.919713,71.3183411 C961.069433,71.4691667 961.237954,71.5767215 961.454031,71.591652 C961.795082,71.6150155 962.142907,71.3967262 962.298295,71.0649376 C962.440411,70.761351 962.386496,70.4377189 962.128392,70.1767118 C961.370808,69.4106949 960.607417,68.6502077 959.847345,67.8865409 C959.794535,67.8334547 959.754721,67.7882485 959.670253,67.6963154 C960.230008,67.6294047 960.795569,67.5286239 961.311915,67.3284448 C961.857984,67.1166531 962.349446,66.8132047 962.758099,66.3937686 C963.024497,66.1201813 963.027262,65.7762271 962.811047,65.4238399 C962.621789,65.1152765 962.292904,64.9857407 961.94024,65.0762913 C961.758862,65.1230182 961.602369,65.2145366 961.455967,65.3267917 C959.978263,66.3207751 957.955873,66.2928496 956.4837,65.281309 C956.411536,65.2312642 956.336192,65.1846756 956.257116,65.1473494 C955.848739,64.9547737 955.455846,65.0444949 955.221797,65.3798779 C954.94821,65.7718032 954.983047,66.1521159 955.328799,66.484181 C955.418243,66.5700313 955.519439,66.6441308 955.617455,66.7209951 C956.407388,67.3388132 957.330037,67.5908343 958.353328,67.6975596 Z" id="ok"/>
        </g>
    </g>
</svg>