<?xml version="1.0" encoding="UTF-8"?>
<svg width="54px" height="16px" viewBox="0 0 54 16" version="1.1" xmlns="http://www.w3.org/2000/svg" xmlns:xlink="http://www.w3.org/1999/xlink">
    <!-- Generator: Sketch 52.2 (67145) - http://www.bohemiancoding.com/sketch -->
    <title>visa</title>
    <desc>Created with Sketch.</desc>
    <g id="Symbols" stroke="none" stroke-width="1" fill="none" fill-rule="evenodd">
        <g id="Artboard" fill="#C7C9CD" fill-rule="nonzero">
            <path d="M5.44297489,2.46391072 C4.07115946,1.69462995 2.50279773,1.08264585 0.757894737,0.673684211 L6.03961325e-14,0.505263158 L7.83157895,0.505263158 C8.75789474,0.505263158 9.51578947,0.757894737 9.76842105,1.76842105 L11.2842105,8.92631579 L11.7052632,11.1157895 L16,0.589473684 L20.5473684,0.589473684 L13.7263158,15.7473684 L9.17894737,15.7473684 L5.44297489,2.46391072 Z M19.4526316,15.6631579 L22.1473684,0.505263158 L26.3578947,0.505263158 L23.7473684,15.6631579 L19.4526316,15.6631579 Z M38.9894737,0.673684211 L38.3157895,3.95789474 L37.8947368,3.78947368 C37.1368421,3.45263158 36.1263158,3.2 34.6947368,3.2 C33.0105263,3.2 32.2526316,3.87368421 32.2526316,4.54736842 C32.2526316,5.30526316 33.1789474,5.72631579 34.6947368,6.48421053 C37.2210526,7.57894737 38.3157895,8.92631579 38.3157895,10.6947368 C38.3157895,13.8947368 35.3684211,16 30.9052632,16 C28.9684211,16 27.1157895,15.5789474 26.1052632,15.1578947 L26.6947368,11.7052632 L27.2842105,11.9578947 C28.7157895,12.5473684 29.6421053,12.8 31.3263158,12.8 C32.5052632,12.8 33.8526316,12.2947368 33.8526316,11.2842105 C33.8526316,10.6105263 33.3473684,10.1052632 31.6631579,9.34736842 C29.9789474,8.58947368 27.8736842,7.41052632 27.8736842,5.13684211 C27.8736842,2.10526316 30.9052632,0 35.1157895,0 C36.8,0 38.1473684,0.336842105 38.9894737,0.673684211 Z M46.2315789,0.505263158 L49.5157895,0.505263158 L53.0526316,15.6631579 L49.0105263,15.6631579 L48.5052632,13.1368421 L43.1157895,13.1368421 L42.2736842,15.6631579 L37.7263158,15.6631579 L44.0421053,1.6 C44.4631579,0.589473684 45.2210526,0.505263158 46.2315789,0.505263158 Z M44.2947368,10.6105263 L44.2947368,10.6947368 L47.8315789,10.6947368 C47.6631579,9.85263158 46.8210526,6.06315789 46.8210526,6.06315789 L46.5684211,4.63157895 C46.3157895,5.22105263 45.9789474,6.14736842 45.9789474,6.14736842 C45.9789474,6.14736842 44.5473684,9.85263158 44.2947368,10.6105263 Z" id="visa"/>
        </g>
    </g>
</svg>